<?xml version="1.0" standalone="no"?>
<!DOCTYPE svg PUBLIC "-//W3C//DTD SVG 1.1//EN" "http://www.w3.org/Graphics/SVG/1.1/DTD/svg11.dtd" >
<svg xmlns="http://www.w3.org/2000/svg">
<metadata>Generated by IcoMoon</metadata>
<defs>
<font id="icomoon" horiz-adv-x="1024">
<font-face units-per-em="1024" ascent="960" descent="-64" />
<missing-glyph horiz-adv-x="1024" />
<glyph unicode="&#x20;" horiz-adv-x="512" d="" />
<glyph unicode="&#xe900;" glyph-name="up" d="M532 758.8c-5.2 5.2-12.2 8-19 8s-13.8-2.6-19-8l-171.6-171.6c-10.6-10.6-10.6-27.6 0-38.2s27.6-10.6 38.2 0l125.4 125.6v-547.8c0-15 12-27 27-27s27 12 27 27v547.8l125.6-125.6c10.6-10.6 27.6-10.6 38.2 0s10.6 27.6 0 38.2l-171.8 171.6z" />
<glyph unicode="&#xe901;" glyph-name="upload1" d="M957.4 461.8c-15 0-27-12-27-27v-245.6c0-66.8-54.4-121-121-121h-592.4c-66.8-0.2-121 54.2-121 120.8v249.6c0 15-12 27-27 27s-27-12-27-27v-249.6c0-96.6 78.6-175 175-175h592.4c96.6 0 175 78.6 175 175v245.6c0 15-12 27.2-27 27.2zM532 879.4c-5.2 5.2-12.2 8-19 8s-13.8-2.6-19-8l-171.6-171.6c-10.6-10.6-10.6-27.6 0-38.2s27.6-10.6 38.2 0l125.4 125.6v-547.8c0-15 12-27 27-27s27 12 27 27v547.8l125.6-125.6c10.6-10.6 27.6-10.6 38.2 0s10.6 27.6 0 38.2l-171.8 171.6z" />
<glyph unicode="&#xe902;" glyph-name="support" d="M508.8 384c0 9.6 6.4 16 16 16h48c9.6 0 16-6.4 16-16s-6.4-16-16-16h-48c-9.6 3.2-16 9.6-16 16v0zM201.6 60.8v0c0 38.4 22.4 64 60.8 83.2l144 70.4c25.6 12.8 38.4 35.2 38.4 60.8v32c0 6.4-3.2 12.8-6.4 16-12.8 16-22.4 28.8-32 44.8h73.6c6.4-16 25.6-28.8 44.8-28.8h48c25.6 0 48 19.2 48 44.8s-22.4 44.8-48 44.8h-48c-19.2 0-38.4-12.8-44.8-28.8h-89.6c-3.2 9.6-9.6 19.2-9.6 32v201.6c0 0 0 0 0 3.2-3.2 25.6 6.4 51.2 25.6 73.6 25.6 28.8 73.6 41.6 137.6 41.6s108.8-12.8 137.6-41.6c19.2-19.2 28.8-48 25.6-73.6 0 0 0 0 0-3.2v-201.6c-12.8-38.4-32-73.6-57.6-105.6-3.2-6.4-6.4-9.6-6.4-16v-35.2c0-25.6 16-48 41.6-60.8l140.8-70.4c38.4-16 64-38.4 64-80l-688-3.2zM345.6 630.4h-32c0 112 102.4 201.6 227.2 201.6s227.2-89.6 227.2-201.6h-32c3.2 35.2-9.6 67.2-35.2 92.8-32 35.2-86.4 51.2-160 51.2s-128-16-160-51.2c-25.6-25.6-38.4-57.6-35.2-92.8v0zM345.6 400c-19.2 0-32 12.8-32 28.8v28.8h32v-32c3.2-9.6 6.4-16 9.6-25.6h-9.6zM297.6 489.6c-9.6 0-16 3.2-16 12.8v86.4c0 9.6 6.4 16 16 16h48v-115.2h-48zM800 588.8v-86.4c0-9.6-6.4-16-16-16h-48v115.2h48c9.6 0 16-6.4 16-12.8v0zM835.2 166.4l-140.8 70.4c-16 6.4-22.4 19.2-22.4 35.2v35.2c28.8 35.2 51.2 76.8 64 118.4v32h48c25.6 0 48 19.2 48 44.8v86.4c0 19.2-12.8 35.2-32 41.6v3.2c0 128-115.2 233.6-259.2 233.6s-259.2-102.4-259.2-233.6v-3.2c-19.2-6.4-32-22.4-32-41.6v-86.4c0-19.2 12.8-35.2 32-41.6v-32c0-32 28.8-57.6 64-57.6h22.4c12.8-22.4 25.6-44.8 41.6-64v-32c0-12.8-9.6-25.6-22.4-35.2l-144-70.4c-48-22.4-76.8-67.2-76.8-115.2v-6.4c0-3.2 3.2-6.4 3.2-9.6 3.2-3.2 6.4-3.2 12.8-3.2h713.6c9.6 0 16 6.4 16 16v3.2c3.2 44.8-28.8 92.8-76.8 112v0z" />
<glyph unicode="&#xe903;" glyph-name="mask2" d="M190.636 196.137l557.54 557.54 24.136-24.136-557.54-557.54-24.136 24.136zM247.125 268.8l25.941 26.624-19.456 13.312c-51.236 38.947-96.040 82.018-135.444 129.714l-1.089 1.358-5.461 6.485 5.461 6.485c40.493 49.054 85.297 92.125 134.564 129.634l1.969 1.438c64.794 53.363 147.602 87.005 238.126 90.768l0.807 0.027c47.73-0.716 92.804-11.328 133.506-29.867l-2.092 0.853 28.331 27.989c-46.668 23.059-101.514 36.84-159.507 37.544l-0.237 0.002c-58.614-0.732-113.809-14.637-162.993-38.879l2.225 0.991c-50.113-24.23-93.302-52.574-132.286-85.716l0.873 0.724c-46.942-39.203-88.399-82.176-124.891-129.194l-1.402-1.878c-2.239-3.016-3.585-6.812-3.585-10.923s1.346-7.907 3.62-10.972l-0.035 0.050c37.885-48.902 79.343-91.876 124.985-130.009l1.308-1.063c15.36-12.971 31.061-24.576 46.763-35.499zM909.995 457.216c-55.059 71.258-119.806 131.662-192.976 180.423l-2.949 1.849-26.965-26.965c14.336-8.875 28.331-18.091 42.667-28.672 51.207-38.984 96.007-82.051 135.444-129.716l1.090-1.356 5.12-6.485-5.12-6.485c-40.58-48.966-85.372-92.025-134.561-129.625l-1.973-1.447c-64.887-53.173-147.635-86.768-238.074-90.764l-0.859-0.030c-58.084 1.155-112.351 16.442-159.83 42.546l1.793-0.903-27.307-27.307c8.192-4.779 16.725-9.216 24.917-12.971 46.858-23.203 101.927-37.102 160.164-37.885l0.263-0.003c229.717 0 409.6 243.712 417.792 253.952 2.682 3.18 4.312 7.324 4.312 11.848 0 3.715-1.099 7.174-2.99 10.068l0.043-0.071zM353.28 390.656c-7.562 17.437-11.96 37.744-11.96 59.079 0 0.71 0.005 1.42 0.015 2.128l-0.001-0.107c0.194 84.753 68.847 153.406 153.581 153.6h0.019c22.125-0.048 43.123-4.819 62.057-13.357l-0.958 0.386 24.235 26.283c-25.107 13.544-54.951 21.504-86.654 21.504-0.016 0-0.032 0-0.047 0h0.002c-103.134-0.966-186.368-84.796-186.368-188.067 0-0.123 0-0.245 0-0.368v0.019c0-0.013 0-0.029 0-0.045 0-31.703 7.96-61.547 21.99-87.642l-0.486 0.988zM629.76 522.069c11.358-20.295 18.252-44.445 18.771-70.159l0.002-0.156c-0.194-84.753-68.847-153.406-153.581-153.6h-0.019c-25.759 0.18-49.948 6.729-71.123 18.148l0.809-0.399-25.6-25.259c27.475-16.704 60.695-26.592 96.224-26.592 103.494 0 187.392 83.898 187.392 187.392 0 35.529-9.887 68.748-27.061 97.057l0.469-0.833z" />
<glyph unicode="&#xe904;" glyph-name="view1" d="M507.221 692.395c-58.568-1.345-113.452-15.822-162.235-40.584l2.149 0.99c-50.262-24-93.578-52.248-132.627-85.372l0.872 0.721c-46.885-39.352-88.338-82.429-124.874-129.512l-1.419-1.902c-2.073-3.011-3.311-6.737-3.311-10.752s1.238-7.741 3.353-10.817l-0.042 0.065c37.962-48.98 79.414-92.056 125.008-130.362l1.285-1.051c38.185-32.508 81.497-60.863 128.139-83.415l3.616-1.577c46.736-23.283 101.705-37.194 159.854-37.886l0.231-0.002c229.717 0 409.6 243.712 418.133 254.293 2.212 2.966 3.542 6.704 3.542 10.752s-1.33 7.786-3.576 10.8l0.034-0.048c-7.851 11.264-188.075 255.659-418.133 255.659zM882.688 419.328c-40.505-48.907-85.305-91.866-134.546-129.283l-1.987-1.448c-64.814-53.379-147.582-87.11-238.078-91.106l-0.856-0.030c-91.344 4.078-174.099 37.799-239.635 91.696l0.701-0.56c-51.23 38.862-96.030 81.821-135.457 129.394l-1.076 1.336-5.461 6.485 5.461 6.485c40.493 49.054 85.297 92.125 134.564 129.634l1.969 1.438c64.825 53.3 147.613 86.926 238.109 90.767l0.824 0.028c91.313-3.922 174.087-37.537 239.64-91.357l-0.707 0.563c51.236-38.947 96.040-82.018 135.444-129.714l1.089-1.358 5.461-6.485zM507.221 587.947c-88.79 0-160.768-71.978-160.768-160.768s71.978-160.768 160.768-160.768c88.79 0 160.768 71.978 160.768 160.768v0c-0.194 88.712-72.056 160.574-160.75 160.768h-0.018zM507.221 303.275c-0.101 0-0.221 0-0.341 0-68.619 0-124.245 55.627-124.245 124.245s55.627 124.245 124.245 124.245c68.619 0 124.245-55.627 124.245-124.245 0-0.12 0-0.24-0.001-0.359v0.019c-0.194-68.352-55.552-123.71-123.885-123.904h-0.019z" />
<glyph unicode="&#xe905;" glyph-name="redo" d="M494.933 806.4c129.707 0 252.587-68.267 317.44-170.667v88.747c0 13.653 10.24 23.893 23.893 23.893s23.893-10.24 23.893-23.893v-197.973c0 0 0 0 0-3.413v-6.827c0 0 0-3.413-3.413-3.413l-3.413-3.413c0 0-3.413 0-3.413-3.413 0 0-3.413 0-3.413-3.413v0h-3.413c0 0 0 0-3.413 0h-197.973c-13.653 0-23.893 10.24-23.893 23.893s10.24 23.893 23.893 23.893h167.253c-44.373 122.88-170.667 211.627-310.613 211.627-174.080 0-317.44-143.36-317.44-317.44s143.36-317.44 317.44-317.44c85.333 0 163.84 34.133 225.28 92.16 10.24 10.24 23.893 10.24 30.72 0 10.24-10.24 10.24-23.893 0-30.72-68.267-68.267-160.427-105.813-256-105.813-201.387 0-361.813 163.84-361.813 361.813s157.013 361.813 358.4 361.813z" />
<glyph unicode="&#xe906;" glyph-name="numbered-list" d="M259.413 751.787v0l-40.96-30.72v30.72l40.96 30.72h34.133v-167.253h-34.133v136.533zM211.627 407.040l54.613 58.027c17.067 17.067 23.893 27.307 23.893 37.547 0 13.653-6.827 20.48-23.893 20.48-13.653 0-23.893-6.827-23.893-27.307h-30.72c0 34.133 23.893 54.613 58.027 54.613s54.613-20.48 54.613-47.787c0-17.067-10.24-30.72-27.307-51.2l-40.96-40.96h71.68v-30.72h-116.053v27.307zM215.040 195.413h30.72c0-10.24 6.827-23.893 30.72-23.893 20.48 0 27.307 10.24 27.307 23.893s-10.24 23.893-30.72 23.893h-13.653v27.307h13.653c17.067 0 23.893 6.827 23.893 20.48 0 10.24-6.827 20.48-23.893 20.48s-23.893-10.24-23.893-23.893h-34.133c0 34.133 23.893 51.2 58.027 51.2 30.72 0 54.613-17.067 54.613-44.373 0-17.067-10.24-30.72-23.893-34.133v0c17.067-3.413 27.307-20.48 27.307-37.547 0-27.307-17.067-51.2-61.44-51.2-30.72-3.413-54.613 13.653-54.613 47.787zM402.773 710.827h453.973v-44.373h-453.973v44.373zM402.773 475.307h453.973v-44.373h-453.973v44.373zM402.773 239.787h453.973v-44.373h-453.973v44.373z" />
<glyph unicode="&#xe907;" glyph-name="copy" d="M823.296 662.357v2.731c0.005 0.093 0.007 0.202 0.007 0.312 0 3.042-1.989 5.619-4.737 6.501l-0.048 0.013-151.552 157.013c-2.641 2.573-6.254 4.16-10.238 4.16-0.482 0-0.958-0.023-1.428-0.069l0.060 0.005h-299.008c-32.99 0-59.733-26.744-59.733-59.733v0-59.392h-51.2c-0.005 0-0.010 0-0.016 0-32.99 0-59.733-26.744-59.733-59.733 0-0.48 0.006-0.959 0.017-1.436l-0.001 0.071v-528.043c0-32.99 26.744-59.733 59.733-59.733v0h409.6c0.611-0.022 1.328-0.035 2.048-0.035 32.99 0 59.733 26.744 59.733 59.733 0 0.012 0 0.025 0 0.037v-0.002 59.392h51.2c32.019 0.942 57.661 26.943 58.026 59.016v0.035zM670.72 677.717v104.448l102.4-104.448zM356.352 181.419h328.021v-56.661c0.023-0.418 0.036-0.908 0.036-1.401 0-15.27-12.378-27.648-27.648-27.648-0.493 0-0.982 0.013-1.469 0.038l0.068-0.003h-409.6c-0.418-0.023-0.908-0.036-1.401-0.036-15.27 0-27.648 12.378-27.648 27.648 0 0.493 0.013 0.982 0.038 1.469l-0.003-0.068v532.139c-0.067 0.723-0.105 1.563-0.105 2.412 0 15.27 12.378 27.648 27.648 27.648 0.397 0 0.792-0.008 1.186-0.025l-0.056 0.002h51.2v-443.733c-0.022-0.611-0.035-1.328-0.035-2.048 0-32.99 26.744-59.733 59.733-59.733 0.012 0 0.025 0 0.037 0h-0.002zM327.339 241.152v534.869c-0.023 0.418-0.036 0.908-0.036 1.401 0 15.27 12.378 27.648 27.648 27.648 0.493 0 0.982-0.013 1.469-0.038l-0.068 0.003h283.648v-142.677c0.518-8.267 7.093-14.842 15.313-15.358l0.047-0.002h136.533v-405.845c0.023-0.418 0.036-0.908 0.036-1.401 0-15.27-12.378-27.648-27.648-27.648-0.493 0-0.982 0.013-1.469 0.038l0.068-0.003h-406.528c-0.418-0.023-0.908-0.036-1.401-0.036-15.27 0-27.648 12.378-27.648 27.648 0 0.493 0.013 0.982 0.038 1.469l-0.003-0.068z" />
<glyph unicode="&#xe908;" glyph-name="bold" d="M699.733 464.725c45.862 35.543 75.098 90.638 75.098 152.561 0 0.485-0.002 0.97-0.005 1.455v-0.074c-0.24 54.515-22.364 103.816-58.032 139.611l0.006-0.006c-35.099 35.826-83.978 58.036-138.045 58.036-0.669 0-1.337-0.003-2.004-0.010l0.102 0.001h-307.2v-61.099h44.373v-604.16h-44.373v-61.44h351.573c0.518-0.005 1.131-0.008 1.744-0.008 108.018 0 195.584 87.566 195.584 195.584 0 80.283-48.371 149.268-117.559 179.401l-1.262 0.49zM375.467 420.352h245.76c75.405 0 136.533-61.128 136.533-136.533s-61.128-136.533-136.533-136.533v0h-245.76zM604.16 485.205c-6.816-2.25-14.661-3.548-22.81-3.548-1.582 0-3.153 0.049-4.71 0.145l0.213-0.011h-201.387v269.653h201.387c75.405 0 136.533-61.128 136.533-136.533v0c-1.975-64.057-47.782-116.866-108.338-129.551l-0.888-0.156z" />
<glyph unicode="&#xe909;" glyph-name="color" d="M870.4 456.875v4.096c-2.909 199.288-165.143 359.724-364.849 359.724-201.521 0-364.885-163.365-364.885-364.885 0-199.588 160.246-361.748 359.097-364.84l0.291-0.004h4.096c0.409-0.006 0.893-0.009 1.377-0.009 56.554 0 102.4 45.846 102.4 102.4 0 5.91-0.501 11.704-1.462 17.34l0.085-0.605c-1.098 6.504-1.725 13.997-1.725 21.637 0 0.793 0.007 1.585 0.020 2.375l-0.002-0.119c2.204 67.455 56.417 121.549 123.715 123.558l0.189 0.004c0.519 0.007 1.133 0.011 1.747 0.011 7.698 0 15.25-0.625 22.609-1.826l-0.804 0.108c4.564-0.721 9.827-1.132 15.187-1.132 25.714 0 49.215 9.478 67.198 25.131l-0.124-0.105c21.829 18.75 35.629 46.313 35.84 77.105v0.037zM756.395 388.608c-7.529 1.357-16.196 2.132-25.043 2.132-1.756 0-3.505-0.031-5.247-0.091l0.253 0.007c-85.85-2.574-154.781-71.505-157.349-157.114l-0.006-0.241c-0.057-1.524-0.089-3.313-0.089-5.111 0-8.807 0.777-17.432 2.268-25.811l-0.13 0.884c0.605-3.414 0.951-7.344 0.951-11.355 0-16.942-6.171-32.442-16.389-44.375l0.078 0.093c-12.105-14.441-30.151-23.558-50.327-23.558-0.307 0-0.613 0.002-0.919 0.006l0.046-0.001h-3.755c-180.886 2.329-326.626 149.508-326.626 330.726 0 182.669 148.083 330.752 330.752 330.752 181.1 0 328.205-145.55 330.719-326.052l0.003-0.237v-3.755c0.009-0.407 0.014-0.887 0.014-1.367 0-20.131-9.124-38.13-23.462-50.089l-0.104-0.085c-11.621-9.459-26.606-15.188-42.93-15.188-4.494 0-8.887 0.434-13.138 1.263l0.431-0.070zM422.912 715.947c-0.101 0.001-0.221 0.001-0.341 0.001-33.555 0-60.757-27.202-60.757-60.757s27.202-60.757 60.757-60.757c33.555 0 60.757 27.201 60.757 60.756v0c0 0 0 0.001 0 0.001 0 33.435-27.008 60.563-60.398 60.756h-0.018zM422.912 629.248c-14.327 0-25.941 11.614-25.941 25.941s11.614 25.941 25.941 25.941c14.327 0 25.941-11.614 25.941-25.941v0c0-14.327-11.614-25.941-25.941-25.941v0zM307.2 598.869c-0.101 0.001-0.221 0.001-0.341 0.001-33.555 0-60.757-27.202-60.757-60.757s27.202-60.757 60.757-60.757c33.555 0 60.757 27.201 60.757 60.756v0c0 0 0 0.001 0 0.001 0 33.435-27.008 60.563-60.398 60.756h-0.018zM307.2 512.171c-14.327 0-25.941 11.614-25.941 25.941s11.614 25.941 25.941 25.941c14.327 0 25.941-11.614 25.941-25.941v0c0-14.327-11.614-25.941-25.941-25.941v0zM705.195 598.869c-33.555 0-60.757-27.202-60.757-60.757s27.202-60.757 60.757-60.757c33.555 0 60.757 27.202 60.757 60.757v0c0 33.555-27.202 60.757-60.757 60.757v0zM705.195 512.171c-14.327 0-25.941 11.614-25.941 25.941s11.614 25.941 25.941 25.941c14.327 0 25.941-11.614 25.941-25.941v0c-0.19-14.25-11.691-25.752-25.923-25.941h-0.018zM307.2 433.323c-0.101 0.001-0.221 0.001-0.34 0.001-33.555 0-60.757-27.202-60.757-60.757s27.202-60.757 60.757-60.757c33.555 0 60.757 27.202 60.757 60.757 0 0.12 0 0.239-0.001 0.359v-0.018c0 33.367-27.049 60.416-60.416 60.416v0zM307.2 345.6c-14.327 0-25.941 11.614-25.941 25.941s11.614 25.941 25.941 25.941c14.327 0 25.941-11.614 25.941-25.941v0c0-14.327-11.614-25.941-25.941-25.941v0zM588.459 715.947c-0.203 0.002-0.443 0.004-0.683 0.004-33.555 0-60.757-27.202-60.757-60.757s27.202-60.757 60.757-60.757c33.554 0 60.755 27.2 60.757 60.753v0c0 0.001 0 0.002 0 0.004 0 33.315-26.814 60.368-60.038 60.753h-0.036zM588.459 629.248c-14.327 0-25.941 11.614-25.941 25.941s11.614 25.941 25.941 25.941c14.327 0 25.941-11.614 25.941-25.941v0c0-14.327-11.614-25.941-25.941-25.941v0zM422.912 316.245c-0.101 0.001-0.221 0.001-0.34 0.001-33.555 0-60.757-27.202-60.757-60.757s27.202-60.757 60.757-60.757c33.555 0 60.757 27.202 60.757 60.757 0 0.12 0 0.239-0.001 0.359v-0.018c-0.192 33.289-27.127 60.224-60.398 60.416h-0.018zM422.912 229.888c-14.327 0-25.941 11.614-25.941 25.941s11.614 25.941 25.941 25.941c14.327 0 25.941-11.614 25.941-25.941v0c0-14.327-11.614-25.941-25.941-25.941v0z" />
<glyph unicode="&#xe90a;" glyph-name="italic" d="M802.133 770.219v44.373h-273.067v-44.373h112.64l-276.48-634.88h-109.227v-44.373h273.067v44.373h-112.64l276.48 634.88z" />
<glyph unicode="&#xe90b;" glyph-name="page-break" d="M184.32 474.965h68.267v-44.373h-68.267v44.373zM296.96 474.965h44.373v-44.373h-44.373v44.373zM385.707 474.965h44.373v-44.373h-44.373v44.373zM477.867 474.965h44.373v-44.373h-44.373v44.373zM570.027 474.965h44.373v-44.373h-44.373v44.373zM658.773 474.965h44.373v-44.373h-44.373v44.373zM750.933 474.965h44.373v-44.373h-44.373v44.373zM839.68 474.965h68.267v-44.373h-68.267v44.373zM771.413 816.299h-44.373v-225.28h-361.813v225.28h-44.373v-273.067h450.56v273.067zM320.853 89.259h44.373v228.693h361.813v-228.693h44.373v273.067h-450.56v-273.067z" />
<glyph unicode="&#xe90c;" glyph-name="striketrought" d="M266.24 816.299v-139.947h47.787v92.16h211.627v-259.413h47.787v259.413h211.627v-92.16h47.787v139.947zM570.027 423.765h-47.787v-286.72h-116.053v-47.787h279.893v47.787h-116.053v286.72zM266.24 488.619h563.2v-47.787h-563.2z" />
<glyph unicode="&#xe90d;" glyph-name="table" d="M862.549 815.957h-674.133c-0.003 0-0.006 0-0.009 0-14.327 0-25.941-11.614-25.941-25.941 0-0.24 0.003-0.479 0.010-0.718l-0.001 0.035v-673.451c0-14.327 11.614-25.941 25.941-25.941v0h674.133c14.327 0 25.941 11.614 25.941 25.941v0 673.451c0 14.327-11.614 25.941-25.941 25.941v0zM214.016 764.075h285.013v-285.355h-284.672zM214.357 140.8v286.037h285.013v-286.037zM836.608 140.8h-285.355v286.037h285.355zM836.608 477.696h-285.355v286.379h285.355z" />
<glyph unicode="&#xe90e;" glyph-name="underlined" d="M194.56 133.632h546.133v-44.373h-546.133zM583.68 816.299v-44.373h44.373v-317.44c0-99.912-80.995-180.907-180.907-180.907s-180.907 80.995-180.907 180.907v0 314.027h44.373v47.787h-136.533v-44.373h44.373v-317.44c0-124.419 100.861-225.28 225.28-225.28s225.28 100.861 225.28 225.28v0 314.027h44.373v47.787z" />
<glyph unicode="&#xe90f;" glyph-name="undo" d="M538.624 814.592c-132.006-0.007-248.313-67.219-316.571-169.286l-0.869-1.381v88.747c0 13.196-10.697 23.893-23.893 23.893s-23.893-10.697-23.893-23.893v0-208.213c0-1.885 1.528-3.413 3.413-3.413v0l3.413-3.413c1.885 0 3.413-1.528 3.413-3.413v0c1.885 0 3.413-1.528 3.413-3.413v0h204.8c13.196 0 23.893 10.697 23.893 23.893s-10.697 23.893-23.893 23.893h-167.253c49.601 124.916 169.419 211.629 309.491 211.629 0.395 0 0.789-0.001 1.184-0.002h-0.061c175.317 0 317.44-142.123 317.44-317.44s-142.123-317.44-317.44-317.44v0c-87.676 0.554-167.061 35.6-225.359 92.236l0.079-0.076c-3.521 4.717-9.088 7.737-15.36 7.737s-11.839-3.021-15.324-7.687l-0.036-0.050c-4.717-3.521-7.737-9.088-7.737-15.36s3.021-11.839 7.687-15.324l0.050-0.036c65.458-65.369 155.839-105.794 255.662-105.794 199.824 0 361.813 161.989 361.813 361.813 0 198.505-159.858 359.673-357.861 361.792l-0.201 0.002z" />
<glyph unicode="&#xe910;" glyph-name="messages" d="M735.915 427.52c0.198 0.008 0.431 0.013 0.665 0.013 3.869 0 7.437-1.287 10.3-3.457l-0.043 0.031c3.701-3.547 6.275-8.242 7.149-13.512l0.019-0.141c0.003-0.118 0.005-0.258 0.005-0.398 0-9.237-7.488-16.725-16.725-16.725-0.482 0-0.96 0.020-1.432 0.060l0.062-0.004h-441.344c-9.426 0-17.067 7.641-17.067 17.067s7.641 17.067 17.067 17.067v0zM735.915 598.187c0.198 0.008 0.431 0.013 0.665 0.013 3.869 0 7.437-1.287 10.3-3.457l-0.043 0.031c3.701-3.547 6.275-8.242 7.149-13.512l0.019-0.141c0.003-0.118 0.005-0.258 0.005-0.398 0-9.237-7.488-16.725-16.725-16.725-0.482 0-0.96 0.020-1.432 0.060l0.062-0.004h-441.344c-9.426 0-17.067 7.641-17.067 17.067s7.641 17.067 17.067 17.067v0zM860.843 183.467l-387.755-1.707-152.235-152.576c-6.272-6.932-15.302-11.269-25.344-11.269-0.21 0-0.42 0.002-0.629 0.006h0.031c-0.713-0.080-1.54-0.126-2.378-0.126-4.719 0-9.098 1.451-12.717 3.93l0.077-0.050c-14.274 5.477-24.507 18.452-25.93 33.976l-0.012 0.158v125.952h-74.069c-41.018 0.193-74.218 33.393-74.411 74.392v491.539c-0.004 0.305-0.007 0.664-0.007 1.025 0 41.167 33.277 74.561 74.399 74.751h678.93c40.99-0.386 74.069-33.705 74.069-74.749 0-0.001 0-0.002 0-0.003v0-496.299c0.003-0.234 0.005-0.51 0.005-0.786 0-37.703-30.564-68.267-68.267-68.267-1.322 0-2.636 0.038-3.94 0.112l0.181-0.008zM465.579 215.211l396.971 3.755c20.471 0.191 37.014 16.735 37.205 37.187v491.538c0 20.548-16.657 37.205-37.205 37.205h-682.667c-20.548 0-37.205-16.657-37.205-37.205v0-495.275c0.191-20.471 16.735-37.014 37.187-37.205h96.274c0.419 0.036 0.907 0.056 1.399 0.056 9.614 0 17.408-7.794 17.408-17.408 0-0.38-0.012-0.757-0.036-1.131l0.003 0.051v-141.653l155.648 156.331c3.755 3.755 7.509 3.755 15.019 3.755z" />
<glyph unicode="&#xe911;" glyph-name="DOC" d="M849.92 568.832h-21.163v102.4c-0.019 4.298-1.564 8.232-4.119 11.292l0.023-0.028-168.277 192.853c-0.968 1.076-2.094 1.985-3.347 2.696l-0.066 0.034h-423.595c-18.851 0-34.133-15.282-34.133-34.133v0-278.187h-21.163c-0.029 0-0.062 0-0.096 0-26.065 0-47.392-20.289-49.048-45.935l-0.007-0.145v-254.635c0.193-26.999 22.125-48.811 49.151-48.811 0 0 0.001 0 0.001 0h20.821v-174.421c0-18.851 15.282-34.133 34.133-34.133v0h565.589c18.851 0 34.133 15.282 34.133 34.133v0 174.080h20.821c27.146 0 49.152 22.006 49.152 49.152v0 254.635c-0.189 26.95-21.889 48.769-48.774 49.152h-0.036zM229.376 847.019h396.971v-175.445c0-9.426 7.641-17.067 17.067-17.067v0h151.552v-86.016h-565.589zM638.976 406.357c0-78.165-47.104-125.269-116.736-125.269-0.335-0.004-0.73-0.006-1.126-0.006-61.267 0-110.933 49.667-110.933 110.933 0 3.487 0.161 6.936 0.476 10.341l-0.033-0.437c-0.253 2.863-0.398 6.195-0.398 9.56 0 63.529 51.5 115.029 115.029 115.029 0.26 0 0.52-0.001 0.779-0.003h-0.040c1.134 0.042 2.465 0.065 3.802 0.065 61.267 0 110.933-49.667 110.933-110.933 0-3.267-0.141-6.501-0.418-9.696l0.029 0.415zM177.493 286.208v233.131c20.365 3.276 43.841 5.147 67.755 5.147 1.74 0 3.478-0.010 5.213-0.030l-0.264 0.002c3.587 0.297 7.764 0.466 11.981 0.466 31.777 0 61.311-9.607 85.854-26.075l-0.555 0.351c24.554-19.552 40.154-49.443 40.154-82.978 0-2.39-0.079-4.761-0.235-7.112l0.017 0.319c0.201-2.6 0.315-5.63 0.315-8.686 0-35.417-15.368-67.244-39.799-89.178l-0.111-0.098c-27.346-19.452-61.424-31.098-98.222-31.098-3.992 0-7.952 0.137-11.876 0.407l0.53-0.029c-21.908 0.534-42.888 2.5-63.416 5.815l2.659-0.354zM794.624 50.688h-565.248v165.205h565.248v-165.205zM797.355 325.803c16.060 0.112 31.415 2.98 45.665 8.152l-0.95-0.301 8.192-41.643c-16.254-6.563-35.102-10.37-54.84-10.37-2.201 0-4.391 0.047-6.569 0.141l0.311-0.011c-3.426-0.368-7.401-0.577-11.425-0.577-62.586 0-113.323 50.736-113.323 113.323 0 2.124 0.058 4.235 0.174 6.33l-0.013-0.291c-0.069 1.525-0.108 3.314-0.108 5.112 0 66.922 54.251 121.173 121.173 121.173 3.161 0 6.294-0.121 9.394-0.359l-0.412 0.025c1.533 0.058 3.332 0.092 5.14 0.092 19.298 0 37.71-3.795 54.53-10.68l-0.961 0.348-10.923-43.008c-13.047 5.616-28.234 8.881-44.183 8.881-0.427 0-0.853-0.002-1.279-0.007l0.065 0.001c-1.44 0.104-3.121 0.163-4.815 0.163-39.399 0-71.339-31.939-71.339-71.339 0-2.582 0.137-5.132 0.405-7.643l-0.027 0.312c-0.223-2.11-0.35-4.559-0.35-7.038 0-39.211 31.787-70.997 70.997-70.997 1.925 0 3.832 0.077 5.719 0.227l-0.249-0.016zM330.411 407.723c0.196 1.943 0.309 4.2 0.309 6.483 0 37.703-30.564 68.267-68.267 68.267-2.393 0-4.757-0.123-7.086-0.363l0.292 0.024c-0.783 0.019-1.705 0.031-2.63 0.031-7.643 0-15.109-0.757-22.328-2.199l0.723 0.121v-155.307c2.767-0.361 5.968-0.568 9.216-0.568s6.449 0.206 9.589 0.606l-0.373-0.039c2.235-0.241 4.828-0.378 7.454-0.378 40.719 0 73.728 33.009 73.728 73.728 0 3.383-0.228 6.712-0.669 9.974l0.042-0.38zM468.651 403.285c0-46.763 21.845-79.531 57.685-79.531s57.344 34.133 57.344 80.555-20.48 77.824-57.344 77.824-57.685-34.133-57.685-78.848z" />
<glyph unicode="&#xe912;" glyph-name="JPG" d="M493.568 482.133c-0.849 0.024-1.848 0.038-2.851 0.038-7.447 0-14.716-0.759-21.735-2.205l0.693 0.119v-75.776c2.866-0.306 6.191-0.481 9.557-0.481s6.691 0.175 9.967 0.515l-0.41-0.035c31.061 0 49.835 15.36 49.835 41.643s-16.384 36.181-45.056 36.181zM867.669 568.832h-20.821v102.4c-0.016 0.255-0.025 0.553-0.025 0.853s0.009 0.598 0.027 0.894l-0.002-0.041c-0.019 4.298-1.564 8.232-4.119 11.292l0.023-0.028-168.96 191.488-3.413 2.731c-0.461 0.124-0.99 0.195-1.536 0.195s-1.075-0.071-1.579-0.205l0.043 0.010h-420.523c-18.851 0-34.133-15.282-34.133-34.133v0-278.187h-20.821c-0.023 0-0.049 0-0.076 0-26.185 0-47.588-20.476-49.070-46.29l-0.006-0.131v-254.635c0-27.146 22.006-49.152 49.152-49.152v0h20.821v-174.080c0-18.851 15.282-34.133 34.133-34.133v0h565.589c18.851 0 34.133 15.282 34.133 34.133v0 174.080h20.821c27.068 0.192 48.96 22.084 49.152 49.134v254.653c0.001 0.101 0.001 0.221 0.001 0.341 0 26.957-21.853 48.811-48.811 48.811 0 0-0.001 0-0.001 0v0zM246.784 847.019h397.312v-175.104c-0.002-0.102-0.003-0.221-0.003-0.341 0-9.426 7.641-17.067 17.067-17.067 0.001 0 0.002 0 0.004 0h151.21v-85.675h-565.589zM595.968 448c0.048-1.039 0.075-2.257 0.075-3.482 0-22.35-9.025-42.592-23.63-57.279l0.004 0.004c-20.418-16.918-46.883-27.183-75.746-27.183-2.532 0-5.046 0.079-7.539 0.235l0.341-0.017c-2.96-0.198-6.416-0.311-9.899-0.311s-6.939 0.113-10.365 0.335l0.466-0.024v-91.477h-57.344v252.587c21.417 3.508 46.1 5.513 71.251 5.513 2.431 0 4.858-0.019 7.281-0.056l-0.366 0.004c2.923 0.248 6.326 0.389 9.761 0.389 25.516 0 49.211-7.799 68.83-21.143l-0.426 0.274c16.728-13.812 27.309-34.554 27.309-57.767 0-0.211-0.001-0.422-0.003-0.633v0.032zM230.741 271.531l8.192 46.763c8.791-3.030 18.92-4.779 29.459-4.779 0.083 0 0.167 0 0.25 0h-0.013c24.235 0 39.595 11.264 39.595 51.2v160.768h57.344v-161.451c0-73.045-34.133-98.304-90.795-98.304-0.669-0.011-1.458-0.017-2.249-0.017-14.88 0-29.264 2.125-42.864 6.089l1.081-0.27zM811.008 51.029h-564.224v164.864h565.589v-164.864zM845.141 281.429c-25.513-8.736-54.92-13.953-85.492-14.334l-0.182-0.002c-2.998-0.227-6.492-0.356-10.017-0.356-35.42 0-67.789 13.063-92.552 34.634l0.169-0.144c-22.423 22.422-36.292 53.399-36.292 87.614 0 1.839 0.040 3.668 0.119 5.488l-0.009-0.259c0 85.333 62.123 133.803 146.091 133.803 1.639 0.055 3.567 0.086 5.501 0.086 23.72 0 46.348-4.671 67.016-13.143l-1.179 0.428-12.288-46.421c-16.393 7.159-35.495 11.325-55.569 11.325-1.464 0-2.923-0.022-4.377-0.066l0.213 0.005c-1.896 0.165-4.103 0.259-6.331 0.259-42.792 0-77.483-34.69-77.483-77.483 0-1.893 0.068-3.77 0.201-5.629l-0.014 0.249c-0.22-2.182-0.346-4.715-0.346-7.278 0-42.415 34.385-76.8 76.8-76.8 1.442 0 2.875 0.040 4.298 0.118l-0.198-0.009c1.078-0.051 2.342-0.080 3.613-0.080 8.829 0 17.331 1.403 25.295 3.997l-0.577-0.163v53.589h-40.619v45.056h95.573v-134.485z" />
<glyph unicode="&#xe913;" glyph-name="PDF" d="M370.005 433.664c0 23.552-16.725 37.888-45.739 37.888-1.062 0.046-2.308 0.072-3.56 0.072-7.338 0-14.466-0.897-21.28-2.588l0.606 0.127v-76.117c4.851-1.132 10.422-1.781 16.144-1.781 1.165 0 2.323 0.027 3.475 0.080l-0.163-0.006c31.061 0 50.517 15.701 50.517 42.325zM550.229 470.869c-0.554 0.009-1.208 0.014-1.863 0.014-8.641 0-17.078-0.875-25.227-2.541l0.807 0.138v-170.667c3.017-0.275 6.525-0.431 10.069-0.431s7.053 0.157 10.518 0.463l-0.448-0.032c2.466-0.269 5.326-0.422 8.221-0.422 44.301 0 80.213 35.913 80.213 80.213 0 3.76-0.259 7.46-0.759 11.082l0.047-0.419c0.288 2.462 0.452 5.315 0.452 8.206 0 41.284-33.468 74.752-74.752 74.752-2.563 0-5.096-0.129-7.593-0.381l0.314 0.026zM896 570.197h-21.163v102.4c-0.016 0.255-0.025 0.553-0.025 0.853s0.009 0.598 0.027 0.894l-0.002-0.041c0.023 0.332 0.036 0.72 0.036 1.111 0 4.446-1.7 8.494-4.485 11.531l0.011-0.013-170.667 194.56c-0.994 1.289-2.25 2.327-3.693 3.044l-0.061 0.028h-427.349c-18.851 0-34.133-15.282-34.133-34.133v0-281.259h-21.845c-27.334 0-49.493-22.159-49.493-49.493v0-257.365c0 0 0-0.001 0-0.001 0-27.403 22.118-49.64 49.475-49.833h21.181v-174.080c0-18.851 15.282-34.133 34.133-34.133v0h572.075c18.851 0 34.133 15.282 34.133 34.133v0 175.104h21.163c0 0 0.001 0 0.001 0 27.334 0 49.493 22.159 49.493 49.493 0 0.12 0 0.24-0.001 0.36v-0.018 257.365c0 0.001 0 0.003 0 0.005 0 27.094-21.771 49.104-48.774 49.488h-0.036zM268.629 851.456h401.067v-177.152c0-9.614 7.794-17.408 17.408-17.408h152.917v-86.699h-571.392zM693.931 390.656c0.149-2.332 0.234-5.057 0.234-7.801 0-38.454-16.646-73.019-43.125-96.884l-0.117-0.103c-30.013-21.565-67.5-34.486-108.004-34.486-4.033 0-8.036 0.128-12.005 0.38l0.542-0.028c-0.709-0.003-1.547-0.005-2.385-0.005-22.496 0-44.672 1.366-66.451 4.020l2.618-0.26v254.635c23.654 3.843 50.962 6.074 78.779 6.144h0.069c4.014 0.346 8.687 0.544 13.405 0.544 34.47 0 66.48-10.535 92.984-28.561l-0.576 0.37c27.056-21.052 44.296-53.618 44.296-90.21 0-2.728-0.096-5.434-0.284-8.114l0.020 0.361zM242.005 254.123v256c22.976 3.915 49.443 6.152 76.432 6.152 0.97 0 1.939-0.003 2.907-0.009l-0.149 0.001c2.859 0.235 6.19 0.369 9.551 0.369 25.856 0 49.862-7.92 69.725-21.466l-0.428 0.276c16.938-13.814 27.667-34.684 27.667-58.059 0-0.589-0.007-1.176-0.020-1.761l0.002 0.087c0.046-1.034 0.072-2.247 0.072-3.467 0-22.57-9.014-43.034-23.639-57.989l0.015 0.015c-20.617-17.136-47.365-27.536-76.542-27.536-2.613 0-5.206 0.083-7.777 0.248l0.351-0.018c-3.010-0.193-6.527-0.303-10.069-0.303s-7.059 0.11-10.547 0.327l0.478-0.024v-92.501zM840.021 45.568h-571.392v167.936h571.392v-166.912zM890.197 464.725h-99.328v-59.051h92.843v-47.787h-92.843v-102.4h-58.709v258.048h158.037z" />
<glyph unicode="&#xe914;" glyph-name="PNG" d="M320.171 442.197c0 22.528-15.701 36.181-43.349 36.181-0.503 0.010-1.096 0.016-1.69 0.016-7.391 0-14.578-0.877-21.462-2.532l0.624 0.127v-72.021c2.765-0.315 5.969-0.495 9.216-0.495s6.451 0.18 9.604 0.53l-0.388-0.035c29.355-1.365 47.445 13.312 47.445 38.229zM868.011 570.197h-21.163v104.107c0.040 0.439 0.063 0.949 0.063 1.464 0 4.279-1.575 8.191-4.177 11.186l0.018-0.021-170.667 194.56c-0.878 1.284-2.024 2.321-3.363 3.047l-0.050 0.025h-428.032c-18.851 0-34.133-15.282-34.133-34.133v0-281.259h-21.504c-26.54-0.561-47.908-21.929-48.468-48.416l-0.001-0.053v-257.365c-0.001-0.101-0.001-0.221-0.001-0.341 0-27.334 22.159-49.493 49.493-49.493 0 0 0.001 0 0.001 0h18.773v-175.104c0-18.851 15.282-34.133 34.133-34.133v0h573.44c18.851 0 34.133 15.282 34.133 34.133v0 175.104h21.163c0 0 0.001 0 0.001 0 27.334 0 49.493 22.159 49.493 49.493 0 0.12 0 0.24-0.001 0.36v-0.018 257.365c0.001 0.101 0.001 0.221 0.001 0.341 0 27.146-22.006 49.152-49.152 49.152 0 0-0.001 0-0.001 0v0zM240.64 851.456h401.408v-177.152c0-9.614 7.794-17.408 17.408-17.408h152.917v-86.699h-571.733zM460.459 345.6v-71.68h-50.859v242.347h64.853l50.517-89.429c13.322-22.461 26.705-49.167 38.291-76.812l1.645-4.425c-3.085 27.496-4.845 59.37-4.845 91.656 0 3.778 0.024 7.55 0.072 11.316l-0.006-0.572v68.267h50.859v-242.347h-58.027l-51.883 94.208c-13.801 23.507-27.977 51.773-40.411 80.96l-1.914 5.056c1.365-32.427 1.707-66.901 1.707-108.544zM199.68 273.92v238.933c21.961 4.155 47.318 6.63 73.217 6.826l0.169 0.001c2.774 0.232 6.003 0.364 9.264 0.364 24.407 0 47.084-7.403 65.909-20.087l-0.421 0.267c16.882-13.043 27.648-33.294 27.648-56.059 0-0.092 0-0.183-0.001-0.275v0.014c0.035-0.873 0.055-1.899 0.055-2.929 0-21.474-8.621-40.934-22.592-55.107l0.009 0.009c-19.384-16.104-44.529-25.878-71.956-25.878-2.785 0-5.547 0.101-8.282 0.299l0.366-0.021c-2.807-0.195-6.084-0.306-9.387-0.306s-6.579 0.111-9.827 0.33l0.44-0.024v-87.040zM814.080 46.592h-573.44v166.912h571.733v-166.912zM865.621 285.525c-24.285-8.241-52.275-13.202-81.361-13.651l-0.218-0.003c-2.603-0.177-5.643-0.278-8.706-0.278-34.842 0-66.636 13.051-90.759 34.531l0.137-0.12c-21.179 21.288-34.271 50.639-34.271 83.048 0 2.004 0.050 3.997 0.149 5.977l-0.011-0.278c0 80.896 59.392 127.317 139.264 127.317 1.587 0.053 3.453 0.083 5.327 0.083 22.665 0 44.297-4.418 64.084-12.44l-1.144 0.41-11.605-44.032c-15.604 6.73-33.771 10.644-52.852 10.644-1.46 0-2.914-0.023-4.362-0.068l0.212 0.005c-2.107 0.214-4.554 0.336-7.029 0.336-40.719 0-73.728-33.009-73.728-73.728 0-1.92 0.073-3.823 0.218-5.706l-0.015 0.25c-0.322-2.583-0.506-5.572-0.506-8.605 0-40.53 32.856-73.387 73.387-73.387 1.138 0 2.271 0.026 3.397 0.077l-0.16-0.006c1.273-0.085 2.759-0.133 4.257-0.133 8.139 0 15.946 1.424 23.184 4.038l-0.476-0.15v50.859h-37.547v43.349h91.136v-128.683z" />
<glyph unicode="&#xe915;" glyph-name="PPT" d="M531.797 482.133c-0.953 0.037-2.073 0.058-3.197 0.058-7.344 0-14.48-0.892-21.305-2.574l0.609 0.127v-75.435c5.414-1.092 11.637-1.718 18.006-1.718 0.51 0 1.019 0.004 1.527 0.012l-0.077-0.001c30.72 0 49.493 15.701 49.493 41.984s-16.043 37.547-45.056 37.547zM356.352 443.563c0 23.211-16.384 37.547-45.056 37.547-1.001 0.040-2.176 0.063-3.357 0.063-7.408 0-14.607-0.894-21.495-2.58l0.617 0.128v-75.435c5.477-1.090 11.773-1.715 18.216-1.715 0.436 0 0.871 0.003 1.306 0.009l-0.066-0.001c31.061 0 49.835 15.701 49.835 41.984zM861.184 568.832h-20.821v102.4c0 0.015 0 0.034 0 0.052 0 4.342-1.689 8.289-4.445 11.221l0.008-0.009-168.277 193.195c-0.899 1.158-2.043 2.084-3.357 2.707l-0.056 0.024c-0.512 0.131-1.101 0.206-1.707 0.206s-1.194-0.075-1.756-0.217l0.049 0.011h-420.181c-18.851 0-34.133-15.282-34.133-34.133v0-278.187h-21.163c-26.072-0.145-47.328-20.568-48.805-46.29l-0.006-0.131v-254.635c0 0 0-0.001 0-0.001 0-27.026 21.812-48.957 48.792-49.151h19.474v-174.080c0-18.851 15.282-34.133 34.133-34.133v0h567.296c18.851 0 34.133 15.282 34.133 34.133v0 174.080h20.821c27.068 0.192 48.96 22.084 49.152 49.134v254.653c0.001 0.102 0.001 0.222 0.001 0.343 0 26.957-21.853 48.811-48.811 48.811-0.12 0-0.241 0-0.361-0.001h0.018zM240.64 847.019h396.971v-175.104c-0.002-0.102-0.003-0.221-0.003-0.341 0-9.426 7.641-17.067 17.067-17.067 0.001 0 0.002 0 0.004 0h151.552v-85.675h-565.589zM634.539 444.928c0.030-0.838 0.048-1.822 0.048-2.81 0-22.557-9.004-43.011-23.615-57.964l0.015 0.016c-20.546-16.92-47.129-27.18-76.109-27.18-2.525 0-5.031 0.078-7.518 0.231l0.341-0.017c-2.909-0.194-6.305-0.304-9.728-0.304s-6.819 0.11-10.187 0.328l0.459-0.024v-91.477h-57.344v252.587c21.481 3.506 46.239 5.509 71.466 5.509 2.356 0 4.707-0.017 7.055-0.052l-0.355 0.004c2.923 0.248 6.326 0.389 9.761 0.389 25.516 0 49.211-7.799 68.83-21.143l-0.426 0.274c16.731-13.874 27.308-34.666 27.308-57.927 0-0.155 0-0.31-0.001-0.465v0.024zM230.059 266.752v252.587c21.456 3.498 46.187 5.497 71.384 5.497 2.024 0 4.045-0.013 6.063-0.039l-0.306 0.003c2.923 0.248 6.326 0.389 9.761 0.389 25.516 0 49.211-7.799 68.83-21.143l-0.426 0.274c16.73-13.688 27.324-34.334 27.324-57.455 0-0.561-0.006-1.12-0.019-1.678l0.001 0.083c0.049-1.058 0.077-2.299 0.077-3.546 0-22.268-8.885-42.461-23.303-57.227l0.016 0.016c-20.327-16.902-46.702-27.16-75.473-27.16-2.388 0-4.76 0.071-7.113 0.21l0.324-0.015c-2.959-0.189-6.416-0.296-9.899-0.296s-6.94 0.108-10.369 0.319l0.47-0.023v-90.453zM806.229 51.029h-565.589v164.864h565.589v-164.864zM848.555 474.283h-68.267v-207.531h-58.027v207.531h-68.267v48.469h196.949v-48.469z" />
<glyph unicode="&#xe916;" glyph-name="XLS" d="M853.333 570.197h-21.163v102.4c-0.016 0.255-0.025 0.553-0.025 0.853s0.009 0.598 0.027 0.894l-0.002-0.041c0.040 0.439 0.063 0.949 0.063 1.464 0 4.279-1.575 8.191-4.177 11.186l0.018-0.021-170.667 194.56c-0.994 1.289-2.25 2.327-3.693 3.044l-0.061 0.028h-427.349c-18.851 0-34.133-15.282-34.133-34.133v0-281.259h-21.504c-27.334 0-49.493-22.159-49.493-49.493v0-257.365c0.571-26.964 22.472-48.626 49.475-48.811h21.181v-175.104c0-18.851 15.282-34.133 34.133-34.133v0h571.733c18.851 0 34.133 15.282 34.133 34.133v0 175.104h21.504c0 0 0.001 0 0.001 0 27.334 0 49.493 22.159 49.493 49.493 0 0.12 0 0.24-0.001 0.36v-0.018 257.365c0 27.334-22.159 49.493-49.493 49.493v0zM226.304 851.456h401.067v-177.152c0-9.614 7.794-17.408 17.408-17.408h152.917v-86.699h-571.392zM614.4 317.952v-50.176h-164.864v264.533h60.075v-214.357zM189.44 267.435l76.459 134.144-73.728 130.389h68.267l23.211-49.835c7.851-16.043 13.995-29.013 20.139-44.032v0c6.144 17.067 11.264 28.672 18.091 44.032l22.187 48.128h68.267l-73.387-127.317 78.507-136.533h-68.267l-23.893 47.787c-9.899 18.432-16.043 32.427-23.552 47.445v0c-5.461-15.019-11.947-29.013-20.139-47.445l-22.187-47.787zM797.696 46.592h-571.392v166.912h571.392v-166.912zM716.8 263.68c-0.595-0.007-1.297-0.011-2-0.011-26.518 0-51.654 5.918-74.159 16.505l1.066-0.451 12.288 49.493c19.354-10.066 42.183-16.188 66.389-16.722l0.171-0.003c27.307 0 41.984 11.605 41.984 28.672s-12.629 25.941-44.373 37.547c-44.032 15.019-72.704 39.595-72.704 78.165 0 45.056 37.547 79.531 100.011 79.531 1.179 0.031 2.566 0.049 3.958 0.049 23.256 0 45.363-4.917 65.339-13.768l-1.030 0.408-13.312-48.128c-15.948 7.756-34.694 12.291-54.499 12.291-0.28 0-0.56-0.001-0.84-0.003h0.043c-26.283 0-38.571-11.605-38.571-25.259s15.019-24.576 49.152-37.547c46.421-17.408 68.267-41.301 68.267-78.848-2.389-44.373-36.181-81.92-107.179-81.92z" />
<glyph unicode="&#xe917;" glyph-name="unordonned-list" d="M368.64 217.259h443.733v-44.373h-443.733v44.373zM187.733 230.912h71.68v-68.267h-71.68v68.267zM368.64 439.125h443.733v-44.373h-443.733v44.373zM187.733 452.779h71.68v-68.267h-71.68v68.267zM368.64 660.992h443.733v-44.373h-443.733v44.373zM187.733 674.645h71.68v-68.267h-71.68v68.267z" />
<glyph unicode="&#xe918;" glyph-name="safe1" d="M426.667 325.12v0c3.413 0 3.413 0 0 0 27.307-27.307 61.44-40.96 98.987-40.96s75.093 17.067 98.987 40.96v0 0c23.893 23.893 40.96 61.44 40.96 98.987s-17.067 75.093-40.96 98.987v0 0c-23.893 23.893-61.44 40.96-98.987 40.96s-75.093-17.067-98.987-40.96v0 0c-23.893-23.893-40.96-61.44-40.96-98.987s17.067-75.093 40.96-98.987zM436.907 495.787l13.653-13.653c-10.24-13.653-17.067-27.307-17.067-44.373h-20.48c3.413 23.893 10.24 44.373 23.893 58.027zM645.12 437.76h-20.48c-3.413 17.067-6.827 30.72-17.067 44.373l13.653 13.653c10.24-13.653 20.48-34.133 23.893-58.027zM617.813 352.427l-13.653 13.653c10.24 13.653 17.067 27.307 17.067 44.373h20.48c0-20.48-10.24-40.96-23.893-58.027zM529.067 492.373c37.547 0 68.267-30.72 68.267-68.267s-30.72-68.267-68.267-68.267-68.267 30.72-68.267 68.267 30.72 68.267 68.267 68.267zM471.040 349.013c13.653-10.24 27.307-17.067 44.373-17.067v-20.48c-23.893 3.413-44.373 10.24-61.44 23.893l17.067 13.653zM542.72 331.947c17.067 3.413 30.72 6.827 44.373 17.067l13.653-13.653c-17.067-13.653-37.547-23.893-61.44-23.893v20.48zM587.093 499.2c-13.653 10.24-27.307 17.067-44.373 17.067v20.48c23.893-3.413 44.373-10.24 61.44-23.893l-17.067-13.653zM515.413 519.68c-17.067-3.413-30.72-6.827-44.373-17.067l-13.653 13.653c17.067 13.653 37.547 23.893 61.44 23.893v-20.48zM433.493 410.453c3.413-17.067 6.827-30.72 17.067-44.373l-13.653-13.653c-13.653 17.067-23.893 37.547-23.893 61.44h20.48zM907.947 816.64h-761.173c-6.827 0-10.24-3.413-10.24-10.24v-761.173c0-6.827 6.827-13.653 13.653-13.653h761.173c6.827 0 13.653 6.827 13.653 13.653v761.173c-3.413 6.827-10.24 10.24-17.067 10.24zM897.707 58.88h-737.28v733.867h733.867v-733.867zM252.587 331.947v-174.080c0-6.827 6.827-13.653 13.653-13.653h529.067c6.827 0 13.653 6.827 13.653 13.653v532.48c0 6.827-6.827 13.653-13.653 13.653h-532.48c-6.827 0-13.653-6.827-13.653-13.653v-174.080c-20.48-6.827-34.133-23.893-34.133-44.373v-92.16c0-23.893 17.067-40.96 37.547-47.787zM276.48 676.693h501.76v-501.76h-501.76v160.427c0 0 0 0 0 0 3.413 0 3.413 0 6.827 3.413 0 0 0 0 0 0s3.413 0 6.827 3.413v0c0 0 3.413 3.413 3.413 3.413v0c0 0 3.413 3.413 3.413 3.413v0c0 0 3.413 3.413 3.413 6.827v0c0 0 0 3.413 3.413 6.827 0 0 0 0 0 0 0 3.413 0 3.413 0 6.827 0 0 0 0 0 0 0 3.413 0 3.413 0 6.827v92.16c0 3.413 0 3.413 0 6.827 0 0 0 0 0 0 0 3.413 0 3.413 0 6.827 0 0 0 0 0 0 0 3.413 0 3.413-3.413 6.827v0c0 0-3.413 3.413-3.413 6.827v0c0 0-3.413 3.413-3.413 3.413v0c0 0-3.413 3.413-3.413 3.413v0c0 0-3.413 3.413-6.827 3.413 0 0 0 0 0 0s-3.413 0-6.827 3.413c0 0 0 0 0 0v167.253zM242.347 471.893c0 10.24 10.24 20.48 20.48 20.48s20.48-10.24 20.48-20.48v-92.16c0-10.24-10.24-20.48-20.48-20.48s-20.48 6.827-20.48 20.48v92.16z" />
<glyph unicode="&#xe919;" glyph-name="stop-time" d="M681.6 537.6c12.8-12.8 12.8-35.2 0-51.2l-140.8-137.6c-12.8-12.8-35.2-12.8-51.2 0-12.8 12.8-12.8 35.2 0 51.2l140.8 137.6c16 12.8 38.4 12.8 51.2 0zM515.2 60.8c-172.8 0-316.8 140.8-316.8 313.6s140.8 313.6 316.8 313.6c172.8 0 316.8-140.8 316.8-313.6s-140.8-313.6-316.8-313.6zM812.8 620.8l35.2 35.2c12.8 12.8 12.8 35.2 0 51.2-12.8 12.8-35.2 12.8-51.2 0l-35.2-35.2c-60.8 51.2-134.4 80-211.2 86.4v70.4h35.2c19.2 0 35.2 16 35.2 35.2s-16 35.2-35.2 35.2h-140.8c-19.2 0-35.2-16-35.2-35.2s16-35.2 35.2-35.2h35.2v-70.4c-195.2-19.2-352-179.2-352-380.8 0-211.2 172.8-384 387.2-384s387.2 172.8 387.2 384c0 89.6-32 172.8-89.6 243.2z" />
<glyph unicode="&#xe91a;" glyph-name="parametres" d="M771.2 694.4c6.4 0 9.6-3.2 9.6-9.6v-121.6c0-6.4-3.2-9.6-9.6-9.6h-41.6v-352c0-6.4-3.2-9.6-9.6-9.6s-9.6 3.2-9.6 9.6v352h-41.6c-6.4 0-9.6 3.2-9.6 9.6v118.4c0 6.4 3.2 9.6 9.6 9.6h41.6v32c0 6.4 3.2 9.6 9.6 9.6s9.6-3.2 9.6-9.6v-28.8h41.6zM675.2 572.8h86.4v99.2h-86.4v-99.2zM547.2 531.2c6.4 0 9.6-3.2 9.6-9.6v-121.6c0-6.4-3.2-9.6-9.6-9.6h-41.6v-192c0-6.4-3.2-9.6-9.6-9.6s-9.6 3.2-9.6 9.6v192h-41.6c-6.4 0-9.6 3.2-9.6 9.6v121.6c0 6.4 3.2 9.6 9.6 9.6h41.6v192c0 6.4 6.4 9.6 9.6 9.6 6.4 0 9.6-3.2 9.6-9.6v-192h41.6zM451.2 409.6h86.4v102.4h-86.4v-102.4zM323.2 371.2c6.4 0 9.6-3.2 9.6-9.6v-121.6c0-6.4-3.2-9.6-9.6-9.6h-44.8v-28.8c0-6.4-3.2-9.6-9.6-9.6s-9.6 3.2-9.6 9.6v28.8h-44.8c-6.4 0-9.6 3.2-9.6 9.6v121.6c0 6.4 6.4 9.6 9.6 9.6h41.6v352c0 6.4 3.2 9.6 9.6 9.6s9.6-3.2 9.6-9.6v-352h48zM227.2 249.6h86.4v102.4h-86.4v-102.4z" />
<glyph unicode="&#xe91b;" glyph-name="overview" d="M780.8 470.4h-217.6c-12.8 0-25.6 12.8-25.6 25.6v220.8c0 12.8 12.8 25.6 25.6 25.6h224c12.8 0 19.2-9.6 19.2-19.2v-224c-3.2-16-12.8-28.8-25.6-28.8zM560 716.8v-220.8h220.8v220.8h-220.8zM784 716.8v0 0zM473.6 163.2h-217.6c-12.8 0-25.6 12.8-25.6 25.6v217.6c0 12.8 12.8 25.6 25.6 25.6h224c12.8 0 19.2-9.6 19.2-19.2v-224c0-12.8-9.6-25.6-25.6-25.6zM252.8 409.6v-220.8h220.8v220.8h-220.8zM480 409.6v0 0zM780.8 163.2h-217.6c-12.8 0-25.6 12.8-25.6 25.6v217.6c0 12.8 12.8 25.6 25.6 25.6h224c12.8 0 19.2-9.6 19.2-19.2v-224c-3.2-12.8-12.8-25.6-25.6-25.6zM560 409.6v-220.8h220.8v220.8h-220.8zM784 409.6v0 0zM473.6 470.4h-217.6c-12.8 0-25.6 12.8-25.6 25.6v220.8c0 12.8 12.8 25.6 25.6 25.6h224c12.8 0 19.2-9.6 19.2-19.2v-224c0-16-9.6-28.8-25.6-28.8zM256 716.8v-220.8h220.8v220.8h-220.8zM480 716.8v0 0z" />
<glyph unicode="&#xe91c;" glyph-name="ecosysteme" d="M803.2 675.2c6.4 0 12.8-6.4 12.8-12.8v-147.2c0-6.4-6.4-12.8-12.8-12.8h-147.2c-6.4 0-12.8 6.4-12.8 12.8v60.8h-67.2v-160l44.8-38.4 48 51.2c3.2 3.2 12.8 3.2 16 0l105.6-108.8c3.2-3.2 3.2-12.8 0-16l-99.2-105.6c-3.2-3.2-6.4-3.2-9.6-3.2s-6.4 0-9.6 3.2l-105.6 108.8c-3.2 3.2-3.2 12.8 0 16l35.2 35.2-44.8 41.6h-169.6c0 0 0-3.2 0-3.2v-76.8h64c6.4 0 12.8-6.4 12.8-12.8v-147.2c0-6.4-6.4-12.8-12.8-12.8h-147.2c-6.4 0-12.8 6.4-12.8 12.8v147.2c0 6.4 6.4 12.8 12.8 12.8h64v76.8c0 0 0 3.2 0 3.2h-118.4c-6.4 0-12.8 6.4-12.8 12.8v300.8c0 6.4 6.4 12.8 12.8 12.8h313.6c6.4 0 12.8-6.4 12.8-12.8v-112h67.2v60.8c0 6.4 6.4 12.8 12.8 12.8h147.2zM316.8 172.8h124.8v124.8h-124.8v-124.8zM675.2 400l-83.2-86.4 89.6-92.8 83.2 86.4-89.6 92.8zM262.4 422.4h291.2v278.4h-291.2v-278.4zM665.6 528h124.8v121.6h-124.8v-121.6z" />
<glyph unicode="&#xe91d;" glyph-name="calculator" d="M736 412.8c-3.2 3.2-6.4 3.2-9.6 3.2h-92.8c-6.4-3.2-9.6-9.6-12.8-16v-246.4c0-9.6 6.4-16 16-16 0 0 0 0 0 0h92.8c6.4 0 12.8 6.4 12.8 12.8v246.4c3.2 9.6 0 16-6.4 16zM656 172.8v220.8h60.8v-217.6l-60.8-3.2zM739.2 569.6c-3.2 6.4-6.4 9.6-12.8 9.6h-92.8c-6.4-3.2-9.6-9.6-12.8-16v-86.4c0-9.6 6.4-16 16-16 0 0 0 0 0 0h92.8c6.4 0 12.8 6.4 12.8 12.8v86.4c3.2 3.2 0 6.4-3.2 9.6zM656 486.4v60.8h60.8v-60.8h-60.8zM569.6 262.4h-92.8c-6.4-3.2-9.6-9.6-12.8-16v-86.4c0-9.6 6.4-16 16-16 0 0 0 0 0 0h89.6c9.6 0 16 6.4 16 12.8 0 0 0 0 0 0v86.4c0 9.6-3.2 16-12.8 16 0 3.2-3.2 3.2-3.2 3.2zM556.8 172.8h-60.8v60.8h60.8v-60.8zM569.6 419.2h-92.8c-6.4-3.2-9.6-9.6-12.8-16v-89.6c0-9.6 6.4-16 16-16 0 0 0 0 0 0h89.6c9.6 0 16 6.4 16 12.8 0 0 0 0 0 3.2v89.6c0 9.6-6.4 16-16 16 0 0 0 0 0 0zM556.8 329.6h-60.8v60.8h60.8v-60.8zM569.6 579.2h-92.8c-6.4-3.2-9.6-9.6-12.8-16v-86.4c0-9.6 6.4-16 16-16 0 0 0 0 0 0h89.6c9.6 0 16 6.4 16 12.8 0 0 0 0 0 3.2v86.4c0 9.6-6.4 16-16 16 0 0 0 0 0 0zM556.8 486.4h-60.8v60.8h60.8v-60.8zM796.8 841.6h-547.2c-6.4-3.2-12.8-9.6-12.8-16v-739.2c0-9.6 6.4-16 12.8-16 0 0 0 0 0 0h544c9.6 0 16 6.4 16 12.8 0 0 0 0 0 0v742.4c3.2 6.4-3.2 12.8-12.8 16 3.2 0 0 0 0 0zM784 99.2h-515.2v710.4h515.2v-710.4zM323.2 144h92.8c6.4 0 12.8 6.4 12.8 12.8v89.6c0 9.6-6.4 16-12.8 16 0 0 0 0 0 0h-96c-6.4-3.2-9.6-9.6-12.8-16v-86.4c0-9.6 3.2-16 12.8-16 0-3.2 3.2-3.2 3.2 0zM400 172.8h-60.8v60.8h60.8v-60.8zM323.2 457.6h92.8c6.4 0 12.8 6.4 12.8 12.8v92.8c0 9.6-6.4 16-12.8 16 0 0 0 0 0 0h-96c-6.4-3.2-9.6-9.6-12.8-16v-86.4c0-9.6 3.2-16 12.8-16 0-3.2 3.2-3.2 3.2-3.2zM400 486.4h-60.8v60.8h60.8v-60.8zM323.2 617.6h403.2c9.6 0 16 6.4 16 12.8 0 0 0 0 0 3.2v121.6c0 9.6-6.4 16-12.8 16 0 0 0 0-3.2 0h-406.4v-3.2c-6.4-3.2-12.8-6.4-12.8-16v-121.6c0-6.4 6.4-12.8 16-12.8 0 0 0 0 0 0zM339.2 646.4v92.8h374.4v-92.8h-374.4zM323.2 300.8h92.8c6.4 0 12.8 6.4 12.8 12.8v92.8c0 9.6-6.4 16-16 16 0 0 0 0-3.2 0h-89.6c-6.4-3.2-9.6-9.6-12.8-16v-89.6c0-9.6 6.4-16 16-16 0 0 0 0 0 0zM400 329.6h-60.8v60.8h60.8v-60.8z" />
<glyph unicode="&#xe91e;" glyph-name="tenue" d="M409.6 297.6h-150.4c-9.6 0-16-6.4-16-16v-147.2c0-9.6 6.4-16 16-16h147.2c9.6 0 16 9.6 16 16v153.6c0 3.2-6.4 9.6-12.8 9.6zM406.4 134.4h-147.2v147.2h147.2v-147.2zM409.6 534.4h-150.4c-9.6 0-16-6.4-16-16v-147.2c0-9.6 6.4-16 16-16h147.2c9.6 0 16 6.4 16 16v150.4c0 9.6-6.4 12.8-12.8 12.8zM406.4 371.2h-147.2v147.2h147.2v-147.2zM409.6 771.2h-150.4c-9.6 0-16-3.2-16-16v-147.2c0-9.6 6.4-16 16-16h147.2c9.6 0 16 9.6 16 16v153.6c0 6.4-6.4 9.6-12.8 9.6zM406.4 608h-147.2v147.2h147.2v-147.2zM812.8 499.2c3.2 0 6.4-6.4 6.4-9.6 0-6.4-3.2-9.6-6.4-9.6h-259.2c-3.2 0-6.4 6.4-6.4 9.6s3.2 9.6 6.4 9.6h259.2zM812.8 412.8c3.2 0 6.4-6.4 6.4-9.6s-3.2-9.6-6.4-9.6h-259.2c-3.2 0-6.4 6.4-6.4 9.6s3.2 9.6 6.4 9.6h259.2zM812.8 736c3.2 0 6.4-6.4 6.4-9.6 0-6.4-3.2-9.6-6.4-9.6h-259.2c-3.2 0-6.4 6.4-6.4 9.6s3.2 9.6 6.4 9.6h259.2zM812.8 649.6c3.2 0 6.4-6.4 6.4-9.6s-3.2-9.6-6.4-9.6h-259.2c-3.2 0-6.4 6.4-6.4 9.6 0 6.4 3.2 9.6 6.4 9.6h259.2zM812.8 265.6c3.2 0 6.4-6.4 6.4-9.6 0-6.4-3.2-9.6-6.4-9.6h-259.2c-3.2 0-6.4 6.4-6.4 9.6s3.2 9.6 6.4 9.6h259.2zM812.8 179.2c3.2 0 6.4-6.4 6.4-9.6s-3.2-9.6-6.4-9.6h-259.2c-3.2 0-6.4 6.4-6.4 9.6s3.2 9.6 6.4 9.6h259.2z" />
<glyph unicode="&#xe91f;" glyph-name="nav1" d="M755.2 851.2c12.8 0 25.6-12.8 25.6-28.8v-742.4c0-16-9.6-28.8-25.6-28.8 0 0 0 0 0 0-12.8 0-25.6 12.8-25.6 28.8v742.4c3.2 16 12.8 28.8 25.6 28.8zM636.8 473.6l-371.2 371.2c-9.6 9.6-25.6 9.6-38.4 0-9.6-9.6-9.6-25.6 0-38.4l352-352-352-352c-6.4-6.4-6.4-12.8-6.4-19.2s3.2-12.8 6.4-19.2c6.4-6.4 12.8-6.4 19.2-6.4s12.8 3.2 19.2 6.4l371.2 371.2c6.4 6.4 6.4 12.8 6.4 19.2s-3.2 12.8-6.4 19.2z" />
<glyph unicode="&#xe920;" glyph-name="nav" d="M736 464l-371.2 371.2c-9.6 9.6-25.6 9.6-38.4 0-9.6-9.6-9.6-25.6 0-38.4l352-352-352-352c-6.4-6.4-6.4-12.8-6.4-19.2s3.2-12.8 6.4-19.2c6.4-6.4 12.8-6.4 19.2-6.4s12.8 3.2 19.2 6.4l371.2 371.2c6.4 6.4 6.4 12.8 6.4 19.2 3.2 6.4 0 12.8-6.4 19.2z" />
<glyph unicode="&#xe921;" glyph-name="delettrage" d="M790.4 710.4c-76.8 76.8-176 118.4-281.6 118.4s-208-41.6-281.6-118.4c-76.8-76.8-118.4-176-118.4-281.6s41.6-208 118.4-281.6c76.8-76.8 179.2-118.4 281.6-118.4s204.8 38.4 281.6 118.4c76.8 76.8 118.4 176 118.4 281.6-3.2 105.6-44.8 204.8-118.4 281.6zM268.8 662.4c64 64 147.2 99.2 236.8 99.2s172.8-35.2 236.8-99.2l3.2-3.2-96-96c-32-9.6-57.6-32-64-64l-99.2-99.2-99.2 259.2h-57.6l-134.4-358.4c-16 38.4-25.6 80-25.6 124.8 0 89.6 35.2 172.8 99.2 236.8zM752 470.4v-28.8c-16 3.2-38.4 9.6-67.2 9.6-32 0-57.6-6.4-73.6-16l92.8 92.8c32-6.4 48-28.8 48-57.6zM752 403.2v-12.8c0-38.4-28.8-73.6-76.8-73.6-41.6 0-57.6 19.2-57.6 44.8 0 35.2 22.4 51.2 67.2 51.2 22.4 0 44.8-3.2 67.2-9.6zM422.4 425.6h-134.4l64 185.6h3.2l67.2-185.6zM201.6 281.6h35.2l35.2 99.2h169.6l6.4-16-179.2-176c-28.8 28.8-48 57.6-67.2 92.8zM742.4 188.8c-115.2-115.2-294.4-128-422.4-41.6l150.4 150.4 6.4-16h51.2v6.4l-19.2 48 70.4 70.4c-6.4-12.8-9.6-25.6-9.6-41.6 0-48 35.2-86.4 96-86.4 41.6 0 70.4 16 86.4 48h3.2l3.2-38.4h38.4v185.6c0 41.6-22.4 73.6-60.8 86.4l51.2 51.2c35.2-54.4 54.4-118.4 54.4-185.6 0-89.6-35.2-172.8-99.2-236.8z" />
<glyph unicode="&#xe922;" glyph-name="attach" d="M864 505.6c0 3.2-3.2 9.6-9.6 9.6-118.4 48-224 9.6-256-3.2l-208 176c6.4 64-25.6 105.6-28.8 108.8 0 0-3.2 3.2-6.4 3.2s-6.4 0-9.6-3.2l-211.2-211.2c-3.2-3.2-6.4-9.6-6.4-12.8s3.2-6.4 6.4-9.6c38.4-32 89.6-28.8 108.8-28.8l176-208c-12.8-32-48-144-3.2-256 3.2-3.2 6.4-6.4 9.6-9.6 0 0 3.2 0 3.2 0 3.2 0 6.4 0 9.6 3.2l201.6 201.6 188.8-188.8c3.2-3.2 6.4-3.2 9.6-3.2s6.4 0 9.6 3.2c6.4 6.4 6.4 12.8 0 19.2l-188.8 188.8 201.6 201.6c3.2 9.6 3.2 12.8 3.2 19.2zM617.6 288l-185.6-185.6c-35.2 112 12.8 220.8 12.8 220.8 3.2 6.4 0 9.6-3.2 16l-185.6 220.8c-3.2 3.2-6.4 6.4-9.6 6.4 0 0 0 0-3.2 0 0 0-44.8-6.4-80 12.8l188.8 185.6c9.6-16 19.2-44.8 12.8-80 0-6.4 0-9.6 3.2-12.8l220.8-185.6c3.2-3.2 9.6-3.2 16-3.2 0 0 102.4 51.2 220.8 12.8l-208-208z" />
<glyph unicode="&#xe923;" glyph-name="crm" d="M998.4 182.4h-438.4c-9.6 0-16 6.4-16 16s6.4 16 16 16h422.4v537.6h-102.4l-80-294.4c-6.4-6.4-12.8-12.8-19.2-12.8h-86.4c-6.4 0-12.8 3.2-16 9.6l-38.4 105.6-156.8-156.8c-6.4-6.4-16-6.4-22.4 0s-6.4 16 0 22.4l176 176c3.2 3.2 9.6 6.4 16 3.2 6.4 0 9.6-6.4 12.8-9.6l41.6-121.6h64l83.2 294.4c3.2 6.4 9.6 12.8 16 12.8h131.2c3.2 3.2 12.8-3.2 12.8-12.8v-569.6c3.2-6.4-6.4-16-16-16zM236.8 755.2c60.8 0 108.8-48 108.8-108.8s-48-108.8-108.8-108.8-108.8 48-108.8 108.8v0c0 60.8 48 108.8 108.8 108.8 0 0 0 0 0 0zM236.8 780.8c-76.8 0-137.6-60.8-137.6-137.6s60.8-137.6 137.6-137.6c76.8 0 137.6 60.8 137.6 137.6s-60.8 137.6-137.6 137.6zM492.8 252.8c-9.6 121.6-112 217.6-233.6 217.6-124.8 0-227.2-96-236.8-217.6l-6.4-54.4c0-9.6 6.4-16 16-16s16 6.4 16 16l6.4 51.2c9.6 112 108.8 195.2 224 185.6 99.2-9.6 179.2-86.4 185.6-185.6l3.2-51.2c0-9.6 6.4-16 16-16s16 6.4 16 16l-6.4 54.4z" />
<glyph unicode="&#xe924;" glyph-name="exchanges" d="M627.2 339.2h-201.6l-80-80c-3.2-3.2-9.6-6.4-12.8-6.4s-6.4 0-6.4 0c-6.4 3.2-12.8 12.8-12.8 19.2v64h-38.4c-22.4 0-38.4 16-38.4 38.4v256c0 22.4 16 41.6 38.4 41.6h352c22.4 0 38.4-16 38.4-38.4v-256c0-22.4-19.2-38.4-38.4-38.4zM422.4 355.2h204.8c9.6 0 19.2 9.6 19.2 19.2v256c0 12.8-9.6 19.2-19.2 19.2h-352c-9.6 0-19.2-9.6-19.2-19.2v-256c0-12.8 9.6-19.2 19.2-19.2h48c6.4 0 9.6-3.2 9.6-9.6v-73.6l83.2 80c0 3.2 3.2 3.2 6.4 3.2zM691.2 601.6h83.2c22.4 0 38.4-16 38.4-38.4v-252.8c0-22.4-16-38.4-38.4-38.4h-38.4v-64c0-6.4-3.2-12.8-12.8-16-3.2 0-3.2 0-6.4 0-6.4 0-9.6 3.2-12.8 6.4l-76.8 76.8h-198.4c-12.8 0-22.4 6.4-28.8 12.8l12.8 12.8c3.2-3.2 9.6-6.4 16-6.4h201.6c3.2 0 3.2 0 6.4-3.2l80-80v73.6c0 6.4 3.2 9.6 9.6 9.6h48c9.6 0 19.2 9.6 19.2 19.2v252.8c0 9.6-9.6 19.2-19.2 19.2h-83.2v16z" />
<glyph unicode="&#xe925;" glyph-name="print1" d="M592 390.4c6.4 0 12.8-6.4 12.8-12.8s-6.4-12.8-12.8-12.8h-163.2c-6.4 0-12.8 6.4-12.8 12.8s6.4 12.8 12.8 12.8h163.2zM592 259.2c6.4 0 12.8-6.4 12.8-12.8s-6.4-12.8-12.8-12.8h-163.2c-6.4 0-12.8 6.4-12.8 12.8s6.4 12.8 12.8 12.8h163.2zM592 326.4c6.4 0 12.8-6.4 12.8-12.8s-6.4-12.8-12.8-12.8h-163.2c-6.4 0-12.8 6.4-12.8 12.8s6.4 12.8 12.8 12.8h163.2zM310.4 524.8c6.4 6.4 16 6.4 19.2 0 3.2-3.2 3.2-6.4 3.2-9.6s0-6.4-3.2-9.6c-3.2-3.2-6.4-3.2-9.6-3.2s-6.4 0-9.6 3.2c-3.2 3.2-3.2 6.4-3.2 9.6-3.2 3.2 0 6.4 3.2 9.6zM668.8 457.6c6.4 0 12.8-6.4 12.8-12.8v-128h54.4c12.8 0 22.4 9.6 22.4 22.4v208c0 12.8-9.6 22.4-22.4 22.4h-451.2c-12.8 0-22.4-9.6-22.4-22.4v-208c0-12.8 9.6-22.4 22.4-22.4h54.4v128c0 6.4 6.4 12.8 12.8 12.8h316.8zM656 198.4v0 230.4h-288v-230.4c0-3.2 3.2-6.4 6.4-6.4h278.4c0 0 3.2 3.2 3.2 6.4zM368 704v-105.6h288v105.6c0 3.2-3.2 6.4-6.4 6.4h-278.4c0 0-3.2-3.2-3.2-6.4zM790.4 339.2c0-28.8-22.4-51.2-51.2-51.2h-54.4v-89.6c0-19.2-16-32-32-32h-278.4c-19.2 0-32 16-32 32v89.6h-57.6c-28.8 0-51.2 22.4-51.2 51.2v208c0 28.8 22.4 51.2 51.2 51.2h54.4v105.6c0 19.2 16 32 32 32h278.4c19.2 0 32-16 32-32v-105.6h54.4c28.8 0 51.2-22.4 51.2-51.2v-208z" />
<glyph unicode="&#xe926;" glyph-name="zoomin" d="M633.6 489.6h-121.6v121.6h-41.6v-121.6h-121.6v-41.6h121.6v-121.6h41.6v121.6h121.6zM956.8 44.8l-179.2 172.8c57.6 67.2 96 153.6 96 249.6 0 208-169.6 380.8-380.8 380.8s-380.8-169.6-380.8-380.8c0-208 169.6-380.8 380.8-380.8 96 0 182.4 35.2 249.6 96l179.2-172.8 35.2 35.2zM492.8 137.6c-185.6 0-332.8 147.2-332.8 329.6 0 185.6 147.2 332.8 332.8 332.8 182.4 0 332.8-147.2 332.8-332.8-3.2-182.4-150.4-329.6-332.8-329.6z" />
<glyph unicode="&#xe927;" glyph-name="A4" d="M892.8 649.6l-224 233.6c-3.2 3.2-6.4 6.4-12.8 6.4h-336c-38.4 0-67.2-32-67.2-67.2v-236.8h-137.6c-28.8 0-51.2-22.4-51.2-51.2v-256c0-28.8 22.4-51.2 51.2-51.2h134.4v-153.6c0-38.4 32-67.2 67.2-67.2h508.8c38.4 0 67.2 32 67.2 67.2v566.4c3.2 3.2 0 6.4 0 9.6zM659.2 844.8l185.6-192h-185.6v192zM115.2 262.4c-9.6 0-16 6.4-16 16v256c0 9.6 6.4 16 16 16h457.6c9.6 0 16-6.4 16-16v-256c0-9.6-6.4-16-16-16h-457.6zM860.8 73.6c0-19.2-16-35.2-35.2-35.2h-505.6c-19.2 0-35.2 16-35.2 35.2v153.6h288c28.8 0 51.2 22.4 51.2 51.2v256c0 28.8-22.4 51.2-51.2 51.2h-288v236.8c0 19.2 16 35.2 35.2 35.2h304v-220.8c0-9.6 6.4-16 16-16h220.8v-547.2zM348.8 323.2v0l-38.4-3.2-12.8 38.4h-70.4l-12.8-38.4h-38.4v3.2l64 176h44.8l64-176zM288 387.2l-25.6 73.6-25.6-73.6h51.2zM438.4 355.2h-80v32l70.4 112h44.8v-115.2h22.4v-32h-22.4v-32h-35.2v35.2zM438.4 384v73.6l-44.8-73.6h44.8z" />
<glyph unicode="&#xe928;" glyph-name="account-info" d="M832 732.8v0c-3.2 9.6-9.6 32-35.2 32h-572.8c-16 0-32-12.8-32-32v-576c0-16 12.8-32 32-32h576c16 0 32 12.8 32 32v576zM800 732.8v-576h-576v576h576zM473.6 630.4h54.4v-54.4h-54.4v54.4zM473.6 470.4h54.4v-211.2h-54.4v211.2z" />
<glyph unicode="&#xe929;" glyph-name="account-list" d="M816 732.8c0 6.4-9.6 32-35.2 32h-569.6c-16 0-32-12.8-32-32v-576c0-16 12.8-32 32-32h576c16 0 32 12.8 32 32l-3.2 576zM787.2 732.8v-576h-576v576h576zM313.6 294.4h368v-32h-368v32zM313.6 403.2h368v-32h-368v32zM313.6 512h368v-32h-368v32zM313.6 620.8h368v-32h-368v32z" />
<glyph unicode="&#xe92a;" glyph-name="addcolumn" d="M419.52 463.68c-3.108 3.022-7.357 4.886-12.041 4.886-0.605 0-1.204-0.031-1.793-0.092l0.074 0.006h-251.2l106.88 107.52c4.408 3.944 7.169 9.65 7.169 16s-2.761 12.056-7.148 15.982l-0.021 0.018c-2.989 3.215-7.242 5.219-11.963 5.219-0.633 0-1.258-0.036-1.872-0.106l0.075 0.007c-5.76 0-10.56-5.44-17.6-16l-138.88-140.48c-3.802-1.907-6.489-5.548-7.033-9.857l-0.007-0.063c-0.083-0.714-0.13-1.54-0.13-2.378 0-6.087 2.499-11.589 6.527-15.539l0.004-0.003 139.52-140.8c1.47-0.183 2.78-0.756 3.856-1.612l-0.016 0.012c2.122-1.214 4.626-2.018 7.296-2.236l0.064-0.004c1.996-0.702 4.298-1.107 6.695-1.107 5.149 0 9.862 1.871 13.494 4.971l-0.029-0.024c4.147 4.019 6.72 9.64 6.72 15.862 0 0.048 0 0.097 0 0.145v-0.007c0 0.024 0 0.052 0 0.080 0 5.98-2.448 11.388-6.397 15.277l-0.003 0.003-103.68 108.16h251.2c0.551-0.063 1.189-0.1 1.836-0.1 4.65 0 8.862 1.871 11.926 4.901l-0.002-0.002c3.981 3.48 6.482 8.567 6.482 14.239 0 0.62-0.030 1.233-0.088 1.838l0.006-0.077c-0.894 6.511-4.6 12.009-9.831 15.308l-0.089 0.052zM933.44 463.68l-139.52 144.32c-3.108 3.022-7.357 4.886-12.041 4.886-0.605 0-1.204-0.031-1.793-0.092l0.074 0.006h-1.6c-1.27-1.176-2.753-2.145-4.38-2.842l-0.1-0.038c-2.468-1.186-4.582-2.686-6.402-4.482l0.002 0.002c-4.020-3.426-6.553-8.494-6.553-14.153 0-1.914 0.29-3.761 0.828-5.499l-0.035 0.131c1.169-2.816 3.653-4.877 6.665-5.432l0.055-0.008 102.4-102.4h-252.48c-0.516 0.055-1.114 0.086-1.719 0.086-4.684 0-8.932-1.864-12.045-4.89l0.004 0.004c-4.16-4.16-8.64-8.64-8.64-13.76-0.056-0.534-0.089-1.153-0.089-1.779 0-4.767 1.861-9.099 4.896-12.309l-0.008 0.008c4.326-4.939 10.573-8.104 17.563-8.319l0.037-0.001h247.68l-104.64-110.4v-1.6c-0.336-1.455-0.888-2.738-1.629-3.888l0.029 0.048c-1.214-2.122-2.018-4.626-2.236-7.296l-0.004-0.064c0.442-10.641 7.657-19.484 17.428-22.357l0.172-0.043c1.010-0.192 2.172-0.301 3.36-0.301s2.35 0.11 3.477 0.319l-0.117-0.018c4.776 0.35 8.959 2.63 11.818 6.053l0.022 0.027 139.2 139.2c3.676 2.195 6.284 5.854 7.027 10.152l0.013 0.088c0.016 0.307 0.025 0.667 0.025 1.028 0 6.148-2.588 11.692-6.734 15.602l-0.011 0.010zM512 729.28c-10.516-1.135-18.631-9.963-18.631-20.687 0-0.603 0.026-1.2 0.076-1.79l-0.005 0.077v-517.76c0-8.96 8.32-22.4 18.56-22.4s17.92 8.32 22.4 21.12v519.040c0.014 0.293 0.023 0.637 0.023 0.983 0 11.841-9.599 21.44-21.44 21.44-0.346 0-0.689-0.008-1.031-0.024l0.048 0.002z" />
<glyph unicode="&#xe92b;" glyph-name="alert" d="M938.56 213.76l-346.88 615.68c-8.499 16.104-21.336 28.94-36.962 37.209l-0.478 0.231c-15.009 8.386-32.931 13.323-52.006 13.323-38.463 0-72.236-20.076-91.413-50.321l-0.262-0.442-346.56-615.68c-7.889-13.246-12.553-29.209-12.553-46.262 0-1.287 0.027-2.567 0.079-3.841l-0.006 0.182c0.358-56.65 46.096-102.5 102.669-103.040h696.691c1.091-0.047 2.372-0.073 3.658-0.073 17.052 0 33.016 4.664 46.683 12.785l-0.422-0.232c30.627 18.699 50.76 51.94 50.76 89.883 0 18.563-4.819 36-13.273 51.129l0.273-0.532zM551.040 569.92v-49.92l-12.48-196.8h-58.56l-9.28 196.8v49.92zM507.2 204.48c-1.218-0.123-2.631-0.193-4.061-0.193-23.682 0-42.88 19.198-42.88 42.88 0 1.533 0.080 3.047 0.237 4.539l-0.016-0.186c-0.121 1.208-0.19 2.611-0.19 4.030 0 23.682 19.198 42.88 42.88 42.88 1.419 0 2.822-0.069 4.205-0.204l-0.176 0.014c1.161 0.102 2.512 0.16 3.876 0.16 25.979 0 47.040-21.061 47.040-47.040s-21.061-47.040-47.040-47.040c-1.364 0-2.715 0.058-4.050 0.172l0.174-0.012z" />
<glyph unicode="&#xe92c;" glyph-name="autosaisie" d="M454.4 800c-9.6 3.2-19.2-3.2-22.4-12.8s3.2-19.2 12.8-22.4c44.8-12.8 89.6-38.4 121.6-70.4s57.6-73.6 73.6-121.6c22.4-76.8 12.8-153.6-19.2-220.8-35.2-64-92.8-118.4-169.6-140.8-16-6.4-32-9.6-48-9.6-9.6 0-22.4-3.2-32-3.2l32 44.8c6.4 9.6 3.2 19.2-3.2 25.6-9.6 6.4-19.2 3.2-25.6-3.2l-51.2-73.6c-6.4-6.4-6.4-16 0-22.4l57.6-67.2c6.4-6.4 19.2-9.6 25.6-3.2s9.6 19.2 3.2 25.6l-35.2 38.4c9.6 0 22.4 0 32 3.2 16 3.2 35.2 6.4 51.2 12.8 86.4 25.6 153.6 86.4 192 160s48 160 22.4 246.4c-16 54.4-44.8 99.2-83.2 134.4-35.2 38.4-83.2 64-134.4 80z" />
<glyph unicode="&#xe92d;" glyph-name="calendar" d="M309.44 296.64h40.96v-40.96h-40.96v40.96zM458.24 296.64h115.2v-40.96h-115.2v40.96zM681.28 296.64h40.96v-40.96h-40.96v40.96zM681.28 445.12h40.96v-40.96h-40.96v40.96zM458.24 445.12h115.2v-40.96h-115.2v40.96zM309.44 878.080v-61.12h-195.2c-0.598 0.049-1.294 0.077-1.997 0.077-14.315 0-25.92-11.605-25.92-25.92 0-0.703 0.028-1.399 0.083-2.088l-0.006 0.091v-728.64c0-9.92 2.24-20.48 27.84-20.48h795.52c16.64 0 27.84 10.56 27.84 20.48v728.64c0.166 0.923 0.26 1.986 0.26 3.071 0 4.895-1.928 9.34-5.067 12.616l0.006-0.007c-5.289 7.163-13.587 11.842-22.991 12.159l-0.049 0.001h-202.56v61.12c0 9.92-3.2 13.12-13.12 13.12s-12.8-3.2-12.8-13.12v-61.12h-338.24v61.12c0 8.32-3.2 13.12-15.68 13.12-5.44 0-17.92-1.28-17.92-13.12zM904.32 73.6h-776.32v553.6h776.32zM352 756.16v19.84h329.28v-18.24c5.994-2.622 12.979-4.148 20.32-4.148s14.326 1.526 20.655 4.278l-0.335-0.13v18.24h182.4v-107.84h-776.32v107.84h181.44v-18.88c5.534-2.248 11.953-3.552 18.677-3.552 0.634 0 1.265 0.012 1.894 0.035l-0.091-0.003c1.677-0.205 3.618-0.322 5.586-0.322 5.916 0 11.586 1.056 16.831 2.991l-0.337-0.109zM309.44 445.12h40.96v-40.96h-40.96v40.96z" />
<glyph unicode="&#xe92e;" glyph-name="check1" d="M160 349.76l208.64-183.68c8.534-5.193 18.632-8.728 29.439-9.892l0.321-0.028h4.8c0.267-0.007 0.582-0.011 0.897-0.011 11.898 0 22.417 5.903 28.789 14.94l0.074 0.111 463.040 624.96c5.321 6.88 8.529 15.63 8.529 25.128 0 14.293-7.264 26.889-18.301 34.298l-0.148 0.094c-6.876 5.408-15.66 8.674-25.206 8.674-14.303 0-26.893-7.331-34.219-18.44l-0.095-0.154-437.12-585.28-173.76 153.6c-8.501 5.326-18.625 8.881-29.487 9.899l-0.273 0.021h-5.12c-11.931-0.721-22.442-6.254-29.714-14.666l-0.046-0.054c-3.378-6.788-5.355-14.785-5.355-23.244 0-14.040 5.447-26.808 14.343-36.305l-0.027 0.029z" />
<glyph unicode="&#xe92f;" glyph-name="close1" d="M905.6 806.4l-35.2 35.2-358.4-361.6-358.4 361.6-35.2-35.2 361.6-358.4-361.6-358.4 35.2-35.2 358.4 361.6 358.4-361.6 35.2 35.2-361.6 358.4 361.6 358.4z" />
<glyph unicode="&#xe930;" glyph-name="comments" d="M848.32 217.28c0.766-0.026 1.666-0.040 2.57-0.040 21.674 0 41.383 8.417 56.034 22.161l-0.044-0.041c9.332 9.887 15.068 23.256 15.068 37.964 0 2.183-0.126 4.337-0.372 6.454l0.024-0.258v488.64c0 0 0 0 0 0.001 0 40.536-32.77 73.418-73.263 73.599h-672.017c-0.095 0-0.207 0.001-0.32 0.001-40.648 0-73.6-32.952-73.6-73.6 0 0 0-0.001 0-0.001v0-484.16c0.181-40.399 32.882-73.099 73.263-73.28h73.617v-125.12c-0.323-1.707-0.507-3.67-0.507-5.676 0-14.196 9.244-26.233 22.041-30.42l0.226-0.064c5.408-2.431 11.722-3.848 18.366-3.848 0.293 0 0.586 0.003 0.877 0.008l-0.044-0.001c10.483 0.806 19.544 6.265 25.208 14.293l0.072 0.107 150.4 150.72c128.64-0.96 253.76 2.56 382.4 2.56zM458.56 246.72c-7.040 0-10.88 0-14.4-3.84l-154.56-154.24v139.84c0.018 0.295 0.028 0.641 0.028 0.988 0 9.543-7.737 17.28-17.28 17.28-0.348 0-0.693-0.010-1.035-0.031l0.047 0.002h-96c-20.324 0-36.8 16.476-36.8 36.8v0 488.64c0.181 20.363 16.73 36.8 37.119 36.8 0 0 0.001 0 0.001 0h676.16c20.252-0.179 36.621-16.548 36.8-36.783v-484.177c0-20.324-16.476-36.8-36.8-36.8v0l-393.28-3.52zM736 610.56h-442.56c-0.73 0.102-1.574 0.16-2.432 0.16-10.25 0-18.56-8.31-18.56-18.56s8.31-18.56 18.56-18.56c0.857 0 1.701 0.058 2.528 0.171l-0.096-0.011h442.56c0.295-0.018 0.641-0.028 0.988-0.028 9.543 0 17.28 7.737 17.28 17.28 0 0.348-0.010 0.693-0.031 1.035l0.002-0.047c-0.842 5.8-3.496 10.866-7.359 14.719l-0.001 0.001c-2.653 2.396-6.187 3.862-10.063 3.862-0.287 0-0.573-0.008-0.857-0.024l0.039 0.002zM736 459.84h-442.56c-0.73 0.102-1.574 0.16-2.432 0.16-10.25 0-18.56-8.31-18.56-18.56s8.31-18.56 18.56-18.56c0.857 0 1.701 0.058 2.528 0.171l-0.096-0.011h442.56c0.302-0.019 0.654-0.030 1.010-0.030 9.543 0 17.28 7.737 17.28 17.28 0 0.461-0.018 0.918-0.053 1.369l0.004-0.060c-0.975 5.767-3.602 10.8-7.369 14.73l0.009-0.010c-1.6-3.84-5.12 3.52-10.88 3.52z" />
<glyph unicode="&#xe931;" d="M240 560c-3.2 3.2-6.4 6.4-9.6 6.4 0 0 0 0-3.2 0 0 0-44.8-6.4-80 12.8l188.8 185.6c9.6-16 19.2-44.8 12.8-80 0-6.4 0-9.6 3.2-12.8l150.4-128 19.2 19.2-147.2 124.8c6.4 64-25.6 105.6-28.8 108.8 0 0-3.2 3.2-6.4 3.2s-6.4 0-9.6-3.2l-211.2-211.2c-3.2-3.2-6.4-9.6-6.4-12.8s3.2-6.4 6.4-9.6c38.4-32 89.6-28.8 108.8-28.8l121.6-144 19.2 19.2-128 150.4z" />
<glyph unicode="&#xe932;" d="M848 505.6c0 3.2-3.2 9.6-9.6 9.6-118.4 48-224 9.6-256-3.2l-35.2 32-19.2-19.2 44.8-38.4c3.2-3.2 9.6-3.2 16-3.2 0 0 102.4 51.2 220.8 12.8l-393.6-393.6c-35.2 112 12.8 220.8 12.8 220.8 3.2 6.4 0 9.6-3.2 16l-38.4 44.8-19.2-19.2 35.2-38.4c-12.8-32-48-144-3.2-256 3.2-3.2 6.4-6.4 9.6-9.6h3.2c3.2 0 6.4 0 9.6 3.2l201.6 201.6 188.8-188.8c3.2-3.2 6.4-3.2 9.6-3.2s6.4 0 9.6 3.2c6.4 6.4 6.4 12.8 0 19.2l-188.8 188.8 201.6 201.6c3.2 9.6 3.2 12.8 3.2 19.2z" />
<glyph unicode="&#xe933;" d="M528 524.8l275.2 275.2-22.4 22.4-691.2-691.2 22.4-22.4 275.2 275.2z" />
<glyph unicode="&#xe934;" glyph-name="archive" d="M896 464v0l-112 224c-9.6 19.2-28.8 32-51.2 32h-16v16c0 9.6-9.6 19.2-19.2 19.2h-364.8c-9.6 0-19.2-9.6-19.2-19.2v-16h-16c-22.4 0-41.6-12.8-51.2-32l-112-220.8v-3.2c-6.4-6.4-6.4-16-6.4-25.6v-233.6c0-32 25.6-57.6 57.6-57.6h662.4c32 0 57.6 25.6 57.6 57.6v233.6c-3.2 9.6-6.4 19.2-9.6 25.6zM678.4 716.8v-57.6h-326.4v57.6h326.4zM316.8 566.4v57.6h396.8v-57.6h-396.8zM313.6 659.2h-16c-9.6 0-19.2-6.4-19.2-16v-76.8h-12.8c-9.6 0-19.2-9.6-19.2-19.2v-51.2h-51.2l89.6 176c3.2 6.4 9.6 9.6 12.8 9.6h16v-22.4zM745.6 496h-73.6c-16 0-28.8-9.6-35.2-22.4l-19.2-44.8h-201.6l-19.2 44.8c-6.4 12.8-19.2 22.4-35.2 22.4h-76.8v32h460.8v-32zM377.6 409.6c6.4-12.8 19.2-22.4 35.2-22.4h204.8c16 0 28.8 9.6 35.2 22.4l19.2 44.8h172.8c9.6 0 16-6.4 16-16v-233.6c0-9.6-6.4-16-16-16h-662.4c-9.6 0-16 6.4-16 16v233.6c0 9.6 6.4 16 16 16h172.8l22.4-44.8zM784 496v51.2c0 9.6-9.6 19.2-19.2 19.2h-16v76.8c0 9.6-9.6 19.2-19.2 19.2h-16v16h16c6.4 0 12.8-3.2 12.8-9.6l89.6-176h-48z" />
<glyph unicode="&#xe935;" glyph-name="shortcuts" d="M604.8 432c32 0 57.6-25.6 57.6-57.6s-25.6-57.6-57.6-57.6c-32 0-57.6 25.6-57.6 57.6v38.4h-73.6v-38.4c0-32-25.6-57.6-57.6-57.6s-57.6 25.6-57.6 57.6c0 32 25.6 57.6 57.6 57.6h38.4v73.6h-38.4c-32 0-57.6 25.6-57.6 57.6s25.6 57.6 57.6 57.6c32 0 57.6-25.6 57.6-57.6v-38.4h73.6v38.4c0 32 25.6 57.6 57.6 57.6s57.6-25.6 57.6-57.6c0-32-25.6-57.6-57.6-57.6h-38.4v-73.6h38.4zM604.8 336c19.2 0 38.4 16 38.4 38.4s-16 38.4-38.4 38.4h-38.4v-38.4c3.2-22.4 19.2-38.4 38.4-38.4zM604.8 601.6c-19.2 0-38.4-16-38.4-38.4v-38.4h38.4c19.2 0 38.4 16 38.4 38.4s-16 38.4-38.4 38.4zM470.4 432h73.6v73.6h-73.6v-73.6zM412.8 601.6c-19.2 0-38.4-16-38.4-38.4 0-19.2 16-38.4 38.4-38.4h38.4v38.4c0 22.4-16 38.4-38.4 38.4zM412.8 336c19.2 0 38.4 16 38.4 38.4v38.4h-38.4c-19.2 0-38.4-16-38.4-38.4s19.2-38.4 38.4-38.4zM262.4 755.2h505.6c16 0 28.8-12.8 28.8-28.8v-502.4c0-22.4-19.2-41.6-41.6-41.6h-492.8c-22.4 0-41.6 19.2-41.6 41.6v489.6c0 25.6 19.2 41.6 41.6 41.6zM768 208v521.6h-518.4v-521.6h518.4z" />
<glyph unicode="&#xe936;" glyph-name="balance" d="M617.6 524.8v0c-9.6 0-16 6.4-16 16v150.4c0 9.6 6.4 16 16 16h153.6c9.6 0 16-6.4 16-16v-153.6c0-9.6-6.4-16-16-16l-153.6 3.2zM633.6 553.6h121.6v124.8h-121.6v-124.8zM252.8 524.8v0c-9.6 0-16 6.4-16 16v150.4c0 9.6 6.4 16 16 16h153.6c9.6 0 16-6.4 16-16v-153.6c0-9.6-6.4-16-16-16l-153.6 3.2zM268.8 553.6h121.6v124.8h-121.6v-124.8zM524.8 364.8l105.6-153.6c3.2-3.2 3.2-6.4 3.2-9.6 0-9.6-6.4-16-16-16h-214.4c-3.2 0-6.4 0-9.6 3.2-6.4 6.4-9.6 12.8-3.2 22.4l105.6 153.6 3.2 3.2c9.6 6.4 19.2 3.2 25.6-3.2zM435.2 217.6h153.6l-76.8 112-76.8-112zM832 464c9.6 0 16-6.4 16-16s-6.4-16-16-16h-640c-9.6 0-16 6.4-16 16s6.4 16 16 16h640z" />
<glyph unicode="&#xe937;" glyph-name="nav-left" d="M304 441.6l371.2-371.2c6.4-3.2 12.8-6.4 19.2-6.4s12.8 0 19.2 6.4c3.2 6.4 6.4 12.8 6.4 19.2s0 12.8-6.4 19.2l-352 352 352 352c9.6 12.8 9.6 28.8 0 38.4-12.8 9.6-28.8 9.6-38.4 0l-371.2-368c0 0-22.4-22.4 0-41.6z" />
<glyph unicode="&#xe938;" glyph-name="add-img" d="M482.645 497.835c40.006 0.194 72.362 32.67 72.362 72.703 0 40.153-32.551 72.704-72.704 72.704s-72.704-32.551-72.704-72.704c0-0.12 0-0.239 0.001-0.359v0.018c0-0.001 0-0.002 0-0.003 0-39.965 32.398-72.363 72.363-72.363 0.24 0 0.48 0.001 0.719 0.004h-0.037zM482.645 600.235c0.101 0.001 0.221 0.002 0.341 0.002 16.589 0 30.037-13.448 30.037-30.037s-13.448-30.037-30.037-30.037c-16.588 0-30.036 13.447-30.037 30.035v0c-0.001 0.101-0.002 0.221-0.002 0.341 0 16.401 13.295 29.696 29.696 29.696 0.001 0 0.001 0 0.002 0v0zM853.333 761.003h-672.768c-14.831-0.556-26.644-12.713-26.644-27.63 0-0.367 0.007-0.731 0.021-1.094l-0.002 0.052v-614.4c-0.013-0.311-0.020-0.676-0.020-1.042 0-14.916 11.812-27.074 26.593-27.628l0.050-0.002h672.768c14.68 0.737 26.303 12.819 26.303 27.615 0 0.372-0.007 0.742-0.022 1.11l0.002-0.053v614.4c0.013 0.315 0.020 0.685 0.020 1.057 0 14.796-11.623 26.878-26.237 27.613l-0.066 0.003zM837.291 715.264v-364.203l-133.461 144.725c-3.991 4.213-9.625 6.835-15.872 6.835s-11.881-2.622-15.863-6.825l-0.009-0.010-189.44-204.8-120.832 130.731c-3.779 4.399-9.348 7.168-15.564 7.168-0.048 0-0.097 0-0.145-0.001h0.007c-0.087 0.001-0.191 0.002-0.294 0.002-6.168 0-11.689-2.773-15.383-7.141l-0.024-0.030-133.803-144.384v437.931zM196.267 134.997v78.507l149.504 161.792 121.173-132.096c3.779-4.399 9.348-7.168 15.564-7.168 0.048 0 0.097 0 0.145 0.001h-0.007c0.050 0 0.109-0.001 0.167-0.001 6.312 0 11.978 2.763 15.856 7.146l0.019 0.022 189.099 204.8 149.845-161.792v-152.235z" />
<glyph unicode="&#xe939;" glyph-name="lettrer" d="M675.2 316.8c48 0 76.8 35.2 76.8 73.6v12.8c-22.4 6.4-44.8 9.6-67.2 9.6-44.8 0-67.2-16-67.2-51.2-3.2-25.6 16-44.8 57.6-44.8zM665.6 278.4c-60.8 0-96 38.4-96 86.4s32 86.4 115.2 86.4c28.8 0 51.2-6.4 67.2-9.6v28.8c0 32-19.2 57.6-64 57.6-41.6 0-60.8-22.4-60.8-48h-44.8c0 54.4 44.8 89.6 105.6 89.6 70.4 0 108.8-41.6 108.8-96v-185.6h-38.4l-3.2 38.4h-3.2c-16-32-48-48-86.4-48zM288 425.6h134.4l-67.2 185.6h-3.2l-64-185.6zM384 665.6l140.8-377.6v-6.4h-51.2l-35.2 102.4h-166.4l-35.2-99.2h-51.2v3.2l140.8 374.4h57.6z" />
<glyph unicode="&#xe93a;" glyph-name="shortcuts1" d="M604.8 435.2h-35.2v67.2h35.2c32 0 60.8 28.8 60.8 60.8s-28.8 60.8-60.8 60.8-60.8-28.8-60.8-60.8v-35.2h-67.2v35.2c0 32-28.8 60.8-60.8 60.8s-60.8-28.8-60.8-60.8c0-32 28.8-60.8 60.8-60.8h35.2v-67.2h-35.2c-32 0-60.8-28.8-60.8-60.8s28.8-60.8 60.8-60.8 60.8 28.8 60.8 60.8v35.2h67.2v-35.2c0-32 28.8-60.8 60.8-60.8s60.8 28.8 60.8 60.8-28.8 60.8-60.8 60.8zM569.6 563.2c0 22.4 19.2 35.2 35.2 35.2 19.2 0 35.2-16 35.2-35.2 0-22.4-19.2-35.2-35.2-35.2h-35.2v35.2zM448 528h-35.2c-22.4 0-35.2 19.2-35.2 35.2 0 22.4 19.2 35.2 35.2 35.2 19.2 0 35.2-16 35.2-35.2v-35.2zM448 374.4c0-22.4-19.2-35.2-35.2-35.2s-35.2 12.8-35.2 35.2 19.2 35.2 35.2 35.2h35.2v-35.2zM540.8 435.2h-67.2v67.2h67.2v-67.2zM604.8 339.2c-16 0-32 16-35.2 35.2v35.2h35.2c19.2 0 35.2-16 35.2-35.2 0-22.4-19.2-35.2-35.2-35.2zM768 758.4h-505.6c-25.6 0-44.8-19.2-44.8-44.8v-489.6c0-25.6 19.2-44.8 44.8-44.8h492.8c25.6 0 44.8 19.2 44.8 44.8v502.4c0 19.2-12.8 32-32 32zM764.8 726.4v-515.2h-512v515.2h512z" />
<glyph unicode="&#xe93b;" glyph-name="download1" d="M957.4 461.8c-15 0-27-12-27-27v-245.6c0-66.8-54.4-121-121-121h-592.4c-66.8-0.2-121 54.2-121 120.8v249.6c0 15-12 27-27 27s-27-12-27-27v-249.6c0-96.6 78.6-175 175-175h592.4c96.6 0 175 78.6 175 175v245.6c0 15-12 27.2-27 27.2zM494.2 228.4c5.2-5.2 12.2-8 19-8s13.8 2.6 19 8l171.6 171.6c10.6 10.6 10.6 27.6 0 38.2s-27.6 10.6-38.2 0l-125.4-125.6v547.8c0 15-12 27-27 27s-27-12-27-27v-547.8l-125.6 125.6c-10.6 10.6-27.6 10.6-38.2 0s-10.6-27.6 0-38.2l171.8-171.6z" />
<glyph unicode="&#xe93c;" glyph-name="options" d="M684.8 419.2c-28.8 0-41.6 16-41.6 41.6s16 41.6 41.6 41.6 41.6-16 41.6-41.6c0-25.6-16-41.6-41.6-41.6zM521.6 419.2c-28.8 0-41.6 16-41.6 41.6s12.8 41.6 41.6 41.6c25.6 0 41.6-16 41.6-41.6s-16-41.6-41.6-41.6zM358.4 419.2c-28.8 0-41.6 16-41.6 41.6s12.8 41.6 41.6 41.6c25.6 0 41.6-16 41.6-41.6s-16-41.6-41.6-41.6z" />
<glyph unicode="&#xe93d;" glyph-name="list" d="M294.4 694.4h544v-32h-544v32zM294.4 534.4h544v-32h-544v32zM214.4 694.4h32v-32h-32v32zM214.4 534.4h32v-32h-32v32zM294.4 374.4h544v-32h-544v32zM214.4 374.4h32v-32h-32v32zM294.4 214.4h544v-32h-544v32zM214.4 214.4h32v-32h-32v32z" />
<glyph unicode="&#xe93e;" glyph-name="miniature" d="M432 662.4h371.2v-32h-371.2v32zM368 550.4h-192v192h192v-192zM208 582.4h128v128h-128v-128zM432 214.4h371.2v-32h-371.2v32zM368 102.4h-192v192h192v-192zM208 134.4h128v128h-128v-128zM432 438.4h371.2v-32h-371.2v32zM368 326.4h-192v192h192v-192zM208 358.4h128v128h-128v-128z" />
<glyph unicode="&#xe93f;" glyph-name="files" d="M492.8 588.8l-35.2 51.2-3.2 6.4h-160v-416h448v358.4z" />
<glyph unicode="&#xe940;" glyph-name="declarations" d="M825.6 227.2l-51.2 51.2c-6.4 6.4-12.8 6.4-19.2 0s-6.4-12.8 0-19.2l28.8-28.8h-150.4c-6.4 0-12.8-6.4-12.8-12.8s6.4-12.8 12.8-12.8h150.4l-28.8-28.8c-6.4-6.4-6.4-12.8 0-16 3.2-3.2 6.4-3.2 9.6-3.2s6.4 0 9.6 3.2l51.2 51.2c6.4 3.2 6.4 9.6 0 16zM745.6 595.2l-208 198.4c-3.2 3.2-6.4 3.2-9.6 3.2h-307.2c-6.4 0-12.8-6.4-12.8-12.8v0-681.6c0-6.4 6.4-12.8 12.8-12.8h512c6.4 0 12.8 6.4 12.8 12.8 0 0 0 0 0 0s0 0 0 0c0 6.4-6.4 12.8-12.8 12.8h-499.2v86.4c0 0 0 0 0 0v569.6h284.8v-185.6c0-6.4 6.4-12.8 12.8-12.8h195.2v-227.2c0-6.4 6.4-12.8 12.8-12.8s12.8 6.4 12.8 12.8v0 240c-3.2 3.2-3.2 6.4-6.4 9.6zM704 598.4h-160v156.8l160-156.8z" />
<glyph unicode="&#xe941;" glyph-name="Flag" d="M707.2 499.2l-300.8 144v19.2c0 3.2-3.2 6.4-6.4 6.4s-6.4-3.2-6.4-6.4v-432c0-3.2 3.2-6.4 6.4-6.4s6.4 3.2 6.4 6.4v137.6l300.8 121.6c3.2 0 3.2 3.2 3.2 6.4 3.2 0 0 3.2-3.2 3.2z" />
<glyph unicode="&#xe942;" glyph-name="copy1" d="M887.36 700.48v0c0 5.76-2.88 11.84-5.76 11.84l-162.24 165.12c-3.493 3.595-8.374 5.825-13.775 5.825-0.558 0-1.11-0.024-1.656-0.070l0.071 0.005h-314.56c-35.346 0-64-28.654-64-64v0-59.84h-53.76c-35.346 0-64-28.654-64-64v0-567.36c0-35.346 28.654-64 64-64v0h435.84c35.346 0 64 28.654 64 64v0 59.84h54.080c35.584 1.053 64.029 30.151 64.029 65.893 0 0.685-0.010 1.367-0.031 2.047l0.002-0.099zM725.44 718.080v103.36l100.16-103.36zM389.44 187.84h346.56v-59.84c0.032-0.499 0.050-1.082 0.050-1.67 0-15.376-12.464-27.84-27.84-27.84-0.693 0-1.381 0.025-2.061 0.075l0.091-0.005h-434.56c-17.92 0-26.56 11.52-26.56 29.44v566.72c-0.035 0.495-0.055 1.073-0.055 1.655 0 13.785 11.175 24.96 24.96 24.96 0.582 0 1.16-0.020 1.732-0.059l-0.077 0.004h52.8v-468.8c-0.002-0.192-0.003-0.42-0.003-0.647 0-35.346 28.654-64 64-64 0.339 0 0.677 0.003 1.014 0.008l-0.051-0.001zM707.52 682.88h141.44v-426.88c0.044-0.59 0.070-1.277 0.070-1.97 0-15.376-12.464-27.84-27.84-27.84-0.587 0-1.171 0.018-1.749 0.054l0.079-0.004h-430.080c-17.6 0-26.56 11.84-26.56 29.76v565.44c-0.059 0.673-0.093 1.455-0.093 2.246 0 14.83 11.868 26.888 26.624 27.194h297.629v-150.4c0-8.96 11.84-17.6 20.48-17.6z" />
<glyph unicode="&#xe943;" glyph-name="deconnect1" d="M719.040 786.24c-3.996 2.769-8.947 4.423-14.285 4.423-1.283 0-2.543-0.096-3.774-0.28l0.139 0.017c-0.416 0.024-0.903 0.037-1.393 0.037-9.806 0-18.355-5.378-22.859-13.346l-0.068-0.131c-3.515-4.719-5.628-10.664-5.628-17.102 0-9.885 4.98-18.607 12.569-23.794l0.099-0.064c89.115-63.291 146.56-166.118 146.56-282.362 0-190.693-154.587-345.28-345.28-345.28-190.511 0-344.985 154.292-345.28 344.734v0.028c1.409 116.985 60.247 219.935 149.58 282.128l1.14 0.752 10.24 19.52v0.96c0.063 0.873 0.099 1.891 0.099 2.918 0 6.239-1.332 12.167-3.728 17.514l0.109-0.272c-5.474 7.856-14.223 13.103-24.225 13.755l-0.095 0.005c-0.972 0.133-2.096 0.208-3.238 0.208-5.1 0-9.847-1.51-13.819-4.108l0.097 0.059c-105.006-74.081-172.751-194.889-172.751-331.52 0-223.258 180.881-404.27 404.091-404.48h0.020c0.081 0 0.176 0 0.271 0 223.388 0 404.48 181.092 404.48 404.48 0 136.631-67.745 257.44-171.479 330.668l-1.272 0.852zM484.16 586.88c0.096-0.001 0.209-0.002 0.322-0.002 15.199 0 27.52 12.321 27.52 27.52 0 0.113-0.001 0.226-0.002 0.339v-0.017 241.28c-1.566 14.209-13.504 25.162-28 25.162s-26.434-10.954-27.989-25.036l-0.011-0.127v-241.28c-0.001-0.097-0.002-0.212-0.002-0.327 0-15.199 12.321-27.52 27.52-27.52 0.226 0 0.451 0.003 0.675 0.008l-0.033-0.001z" />
<glyph unicode="&#xe944;" glyph-name="docs" d="M857.92 711.68l-153.92 154.88c-2.606 2.608-6.208 4.222-10.187 4.222-0.47 0-0.934-0.022-1.392-0.066l0.058 0.005h-424.96c-0.385 0.014-0.838 0.022-1.293 0.022-20.854 0-37.76-16.906-37.76-37.76 0-0.345 0.005-0.69 0.014-1.033l-0.001 0.051v-768c-0.014-0.388-0.022-0.844-0.022-1.302 0-20.854 16.906-37.76 37.76-37.76 0.458 0 0.914 0.008 1.368 0.024l-0.066-0.002h555.52c0.388-0.014 0.844-0.022 1.302-0.022 20.854 0 37.76 16.906 37.76 37.76 0 0.458-0.008 0.914-0.024 1.368l0.002-0.066v636.16c0.039 0.4 0.062 0.864 0.062 1.333 0 3.979-1.613 7.58-4.222 10.186v0zM262.72 832c0 3.52 0 4.8 4.8 4.8h404.48v-113.28c-0.022-0.484-0.035-1.052-0.035-1.623 0-20.678 16.762-37.44 37.44-37.44 0.463 0 0.923 0.008 1.382 0.025l-0.066-0.002h113.28l2.56-618.56c0-3.52 0-4.8-4.48-4.8h-554.56c-3.52 0-4.8 0-4.8 4.8zM710.72 723.84v89.28l94.4-96h-89.6c-4.48 1.6-5.44 2.56-5.44 6.4zM736 596.48c-3.166 2.591-7.255 4.16-11.71 4.16-0.046 0-0.091 0-0.137 0h-351.993c-9.318-1.256-16.427-9.158-16.427-18.72s7.109-17.464 16.33-18.709l0.097-0.011h352c0.291-0.017 0.63-0.026 0.972-0.026 9.897 0 17.92 8.023 17.92 17.92 0 0.234-0.004 0.468-0.013 0.7l0.001-0.033c-0.86 5.741-3.383 10.781-7.056 14.737l0.016-0.017zM736 476.16c-3.166 2.591-7.255 4.16-11.71 4.16-0.046 0-0.091 0-0.137 0h-351.993c-9.318-1.256-16.427-9.158-16.427-18.72s7.109-17.464 16.33-18.709l0.097-0.011h352c0.291-0.017 0.63-0.026 0.972-0.026 9.897 0 17.92 8.023 17.92 17.92 0 0.234-0.004 0.468-0.013 0.7l0.001-0.033c-0.86 5.741-3.383 10.781-7.056 14.737l0.016-0.017zM736 355.52c-2.921 2.595-6.79 4.18-11.029 4.18-0.285 0-0.569-0.007-0.851-0.021l0.040 0.002h-352c-10.25 0-18.56-8.31-18.56-18.56s8.31-18.56 18.56-18.56h352c0.291-0.017 0.63-0.026 0.972-0.026 9.897 0 17.92 8.023 17.92 17.92 0 0.234-0.004 0.468-0.013 0.7l0.001-0.033c-0.795 5.653-3.334 10.604-7.045 14.405l0.005-0.005zM546.88 236.48h-176.32c-9.318-1.256-16.427-9.158-16.427-18.72s7.109-17.464 16.33-18.709l0.097-0.011h176.32c9.318 1.256 16.427 9.158 16.427 18.72s-7.109 17.464-16.33 18.709l-0.097 0.011z" />
<glyph unicode="&#xe945;" glyph-name="edit1" d="M859.2 344c-11.311 0-20.48-9.169-20.48-20.48v0-181.12c0.001-0.095 0.001-0.207 0.001-0.32 0-33.756-27.364-61.12-61.12-61.12 0 0-0.001 0-0.001 0h-572.8c0 0-0.001 0-0.001 0-33.756 0-61.12 27.364-61.12 61.12 0 0.113 0 0.225 0.001 0.337v-0.017 531.84c-0.005 0.286-0.008 0.623-0.008 0.961 0 33.579 27.221 60.8 60.8 60.8 0.115 0 0.23 0 0.345-0.001h181.102c11.311 0 20.48 9.169 20.48 20.48s-9.169 20.48-20.48 20.48v0h-181.12c-0.001 0-0.001 0-0.002 0-56.377 0-102.080-45.703-102.080-102.080 0-0.225 0.001-0.45 0.002-0.675v0.035-531.84c0-56.377 45.703-102.080 102.080-102.080h572.8c56.377 0 102.080 45.703 102.080 102.080v0 181.12c0 11.311-9.169 20.48-20.48 20.48v0zM871.68 828.8c-16.622 16.631-39.59 26.919-64.96 26.919s-48.338-10.287-64.96-26.918v0l-364.48-364.16c-2.236-2.503-3.986-5.492-5.070-8.784l-0.050-0.176-48-172.8c-0.407-1.562-0.641-3.354-0.641-5.201 0-5.821 2.32-11.1 6.085-14.963l-0.004 0.005c3.693-3.629 8.76-5.869 14.351-5.869 1.954 0 3.844 0.274 5.633 0.785l-0.144-0.035 172.8 48c3.553 0.839 6.602 2.641 8.953 5.112l0.007 0.008 364.8 364.16c16.631 16.622 26.919 39.59 26.919 64.96s-10.287 48.338-26.918 64.96v0zM421.76 451.52l298.24 297.92 96-96-297.92-298.24zM402.56 412.8l77.44-76.8-105.92-29.44zM866.56 704l-21.44-21.44-96 96 21.44 21.44c9.21 9.221 21.939 14.925 36 14.925s26.79-5.704 36-14.924v-0.001l24-24c9.069-9.278 14.665-21.986 14.665-36s-5.595-26.722-14.674-36.010l0.009 0.010z" />
<glyph unicode="&#xe946;" glyph-name="notification" d="M806.4 211.2l-54.4 89.6c-25.6 41.6-38.4 86.4-38.4 134.4v76.8c0 99.2-64 179.2-153.6 208v54.4c0 35.2-28.8 60.8-60.8 60.8s-60.8-28.8-60.8-60.8v-54.4c-89.6-28.8-153.6-112-153.6-208v-76.8c0-48-12.8-92.8-38.4-134.4l-54.4-89.6c-3.2-3.2-3.2-9.6 0-16s6.4-6.4 12.8-6.4h217.6c0-6.4 0-9.6 0-16 0-41.6 35.2-76.8 76.8-76.8s76.8 35.2 76.8 76.8c0 6.4 0 9.6 0 16h217.6c6.4 0 9.6 3.2 12.8 6.4s3.2 9.6 0 16zM470.4 774.4c0 16 12.8 32 32 32 16 0 32-12.8 32-32v-48c-9.6 0-19.2 3.2-32 3.2s-19.2 0-32-3.2c0 0 0 48 0 48zM547.2 172.8c0-25.6-19.2-44.8-44.8-44.8s-44.8 19.2-44.8 44.8c0 9.6 0 9.6 0 16h89.6c0-6.4 0-12.8 0-16zM233.6 217.6l38.4 64c28.8 44.8 41.6 99.2 41.6 150.4v80c0 102.4 83.2 185.6 185.6 185.6s185.6-83.2 185.6-185.6v-76.8c0-54.4 16-105.6 41.6-150.4l38.4-64h-531.2v-3.2z" />
<glyph unicode="&#xe947;" glyph-name="Logo" d="M925.324 784.989c2.793 8.378 5.585 7.447 5.585-1.862v-816.407c0.004-0.132 0.006-0.288 0.006-0.444 0-8.012-6.098-14.6-13.906-15.377l-0.064-0.005h-122.88c-7.872 0.781-13.97 7.369-13.97 15.382 0 0.156 0.002 0.312 0.007 0.466l-0.001-0.023v430.080c-0.146 1.55-0.23 3.353-0.23 5.174 0 4.099 0.423 8.1 1.227 11.961l-0.066-0.379c0 0.931 3.724 7.447 6.516 15.825l54.924 146.153c2.793 8.378 8.378 21.411 11.171 29.789zM919.738 941.382c0.612 0.143 1.315 0.225 2.036 0.225 5.141 0 9.309-4.168 9.309-9.309 0-2.206-0.768-4.234-2.050-5.829l0.014 0.018-139.636-304.407c-3.724-8.378-6.516-14.895-6.516-14.895v0s-2.793-6.516-6.516-14.895l-88.436-203.869c-3.724-8.378-9.309-21.411-12.102-28.858 0 0-14.895-36.305-23.273-58.647-0.931-1.862-17.687-46.545-23.273-65.164-0.931-1.862-10.24-36.305-11.171-37.236-3.724-13.033-13.033-65.164-13.033-67.025-0.931-4.655-0.931-10.24-1.862-15.825-0.291-6.159-0.956-11.921-1.983-17.556l0.121 0.8c-0.931-5.585-1.862-19.549-1.862-21.411 0-3.724-2.793-67.956-2.793-76.335v-35.375c-0.251-8.637-7.188-15.574-15.802-15.825l-0.024-0.001h-137.775c-8.637 0.251-15.574 7.188-15.825 15.802l-0.001 0.024v35.375c0 8.378-2.793 72.611-2.793 76.335 0 1.862-0.931 15.825-1.862 21.411-0.061 5.968-0.736 11.744-1.965 17.312l0.103-0.556c-0.931 5.585-0.931 10.24-1.862 15.825 0 1.862-10.24 53.062-13.033 65.164 0 0.931-10.24 36.305-11.171 37.236-6.516 19.549-23.273 64.233-23.273 65.164-8.378 22.342-23.273 58.647-23.273 58.647-3.724 8.378-9.309 21.411-12.102 28.858l-88.436 203.869c-3.724 8.378-6.516 14.895-6.516 14.895v0s-2.793 6.516-6.516 14.895l-140.567 306.269c-1.269 1.577-2.036 3.604-2.036 5.811 0 5.141 4.168 9.309 9.309 9.309 0.722 0 1.424-0.082 2.099-0.238l-0.063 0.012h137.775c9.567-0.665 17.742-6.055 22.27-13.831l0.072-0.133 173.149-369.571c3.724-7.447 9.309-21.411 13.033-28.858l55.855-145.222c1.862-4.655 3.724-6.516 5.585-6.516h1.862c1.862 0 3.724 1.862 5.585 6.516l55.855 145.222c3.724 8.378 9.309 21.411 13.033 28.858l172.218 369.571c4.6 7.909 12.775 13.299 22.254 13.959l0.088 0.005zM180.596 574.604l55.855-146.153c3.123-9.093 5.132-19.595 5.578-30.499l0.007-0.221v-431.011c0.004-0.132 0.006-0.288 0.006-0.444 0-8.012-6.098-14.6-13.906-15.377l-0.064-0.005h-122.88c-7.872 0.781-13.97 7.369-13.97 15.382 0 0.156 0.002 0.312 0.007 0.466l-0.001-0.023v814.545c0 8.378 2.793 9.309 5.585 1.862l71.68-179.665c3.724-8.378 8.378-21.411 12.102-28.858z" />
<glyph unicode="&#xe948;" glyph-name="plus1" d="M830.4 517.76h-288.64v279.68h-99.2v-279.68h-288.32v-99.2h288.32v-288.64h99.2v288.64h288.64v99.2z" />
<glyph unicode="&#xe949;" glyph-name="popup" d="M755.2 486.4c9.6 0 16 6.4 16 16 0 0 0 0 0 3.2v195.2c0 0 0 6.4 0 9.6s-6.4 3.2-9.6 3.2h-198.4c-9.6 0-19.2-9.6-19.2-19.2s6.4-16 16-16h150.4l-256-256c-6.4-6.4-9.6-16-3.2-25.6 0 0 3.2-3.2 3.2-3.2 6.4-6.4 12.8-9.6 28.8 0l256 256v-150.4c-3.2-6.4 6.4-12.8 16-12.8zM896 854.4h-572.8c-9.6 0-16-6.4-16-16 0 0 0 0 0-3.2v-160h-163.2c-6.4 3.2-16-3.2-16-12.8 0 0 0 0 0-3.2v-572.8c0-9.6 6.4-16 16-16 0 0 0 0 3.2 0h572.8c9.6 0 16 6.4 19.2 12.8 0 0 0 3.2 0 3.2v160h160c9.6 0 16 6.4 16 16 0 0 0 0 0 3.2v572.8c0 9.6-6.4 16-19.2 16zM700.8 105.6h-534.4v534.4h140.8v-374.4c0-9.6 6.4-16 16-16 0 0 0 0 3.2 0h377.6v-144zM876.8 281.6h-534.4v537.6h534.4v-537.6z" />
<glyph unicode="&#xe94a;" glyph-name="progress" d="M480 847.68v-64c176.731 0 320-143.269 320-320s-143.269-320-320-320c-176.731 0-320 143.269-320 320v0h-64c0-212.077 171.923-384 384-384s384 171.923 384 384c0 212.077-171.923 384-384 384v0z" />
<glyph unicode="&#xe94b;" glyph-name="refresh" d="M636.8 611.2l153.6-6.4c0 0 0 0 0 0 6.4 0 9.6 0 12.8 3.2s6.4 6.4 6.4 12.8v163.2c0 3.2 0 9.6-3.2 12.8-9.6 9.6-28.8 3.2-28.8-9.6v-118.4l-25.6 28.8c-64 64-150.4 99.2-240 99.2-44.8 0-89.6-9.6-131.2-25.6-147.2-60.8-230.4-220.8-198.4-377.6 3.2-9.6 9.6-12.8 19.2-12.8 9.6 3.2 12.8 9.6 12.8 19.2-28.8 140.8 48 284.8 179.2 339.2 115.2 48 249.6 22.4 336-67.2l28.8-28.8h-118.4c-9.6 0-16-6.4-16-16-3.2-9.6 6.4-16 12.8-16zM512 118.4c44.8 0 89.6 9.6 131.2 25.6 147.2 60.8 230.4 220.8 198.4 377.6-3.2 9.6-9.6 12.8-19.2 12.8-9.6-3.2-12.8-9.6-12.8-19.2 28.8-140.8-48-284.8-179.2-339.2-112-48-243.2-22.4-332.8 64l-25.6 25.6 112 3.2c3.2 0 9.6 3.2 9.6 6.4 3.2 3.2 3.2 6.4 3.2 12.8 0 3.2-3.2 9.6-6.4 12.8s-6.4 3.2-9.6 3.2c0 0 0 0 0 0l-156.8-6.4c-3.2 0-9.6-3.2-12.8-6.4s-3.2-6.4-3.2-12.8l12.8-160c0-9.6 6.4-16 16-16s16 9.6 16 16l-9.6 128 32-28.8c64-64 150.4-99.2 236.8-99.2z" />
<glyph unicode="&#xe94c;" glyph-name="save" d="M787.2 854.4h-668.8v-828.8h812.8v684.8l-144 144zM710.4 819.2v-236.8h-406.4v236.8h406.4zM272 57.6v323.2h489.6v-323.2h-489.6zM896 57.6h-102.4v355.2h-556.8v-355.2h-83.2v761.6h118.4v-272h473.6v272h25.6l124.8-124.8v-636.8zM678.4 787.2h-102.4v-169.6h102.4v169.6zM643.2 652.8h-35.2v99.2h35.2v-99.2z" />
<glyph unicode="&#xe94d;" glyph-name="scan" d="M252.8 234.24c0-22.975-18.625-41.6-41.6-41.6s-41.6 18.625-41.6 41.6c0 22.975 18.625 41.6 41.6 41.6s41.6-18.625 41.6-41.6zM54.4 55.040h915.2v345.6l-6.4 12.8-448 460.8s-3.2 3.2-3.2 0c-1.767 0-3.2-1.433-3.2-3.2v0l-28.8-35.2 425.6-432h-739.2c-62.092-1.071-112.016-51.657-112.016-113.904 0-0.681 0.006-1.36 0.018-2.038l-0.001 0.102zM89.6 288c-0.007 0.388-0.011 0.845-0.011 1.303 0 42.805 34.164 77.63 76.712 78.695l0.099 0.002h771.2v-278.4h-848zM643.2 435.84h-448c-0.297-0.021-0.643-0.033-0.993-0.033-8.306 0-15.040 6.734-15.040 15.040 0 0.349 0.012 0.696 0.035 1.039l-0.003-0.046v3.2c0.952 7.293 7.127 12.866 14.603 12.866 0.492 0 0.978-0.024 1.458-0.071l-0.061 0.005h451.2c0.297 0.021 0.643 0.033 0.993 0.033 8.306 0 15.040-6.734 15.040-15.040 0-0.349-0.012-0.696-0.035-1.039l0.003 0.046v-3.84c-3.579-7.166-10.806-12.029-19.183-12.16h-0.017z" />
<glyph unicode="&#xe94e;" glyph-name="search1" d="M432 838.4c-188.8 0-342.4-144-342.4-323.2 5.135-181.386 153.401-326.47 335.554-326.47 2.407 0 4.808 0.025 7.204 0.076l-0.357-0.006c0.288-0.001 0.629-0.001 0.97-0.001 80.371 0 154.569 26.431 214.375 71.076l-0.945-0.675 6.4 3.2 230.4-220.8c5.557-4.775 12.839-7.682 20.8-7.682s15.243 2.907 20.842 7.718l-0.042-0.036c5.855 4.425 9.6 11.375 9.6 19.2s-3.745 14.775-9.54 19.156l-0.060 0.044-230.4 220.8 6.4 6.4c47.673 53.136 76.822 123.74 76.822 201.152 0 1.283-0.008 2.564-0.024 3.842l0.002-0.194c-6.516 181.678-155.365 326.485-338.036 326.485-2.66 0-5.313-0.031-7.958-0.092l0.393 0.007zM432 243.2c-1.834-0.044-3.994-0.069-6.16-0.069-149.827 0-271.721 119.592-275.433 268.524l-0.007 0.344c4.785 149.478 127.107 268.833 277.306 268.833 1.51 0 3.016-0.012 4.52-0.036l-0.227 0.003c1.834 0.044 3.994 0.069 6.16 0.069 149.827 0 271.721-119.592 275.433-268.524l0.007-0.344c-3.718-149.277-125.613-268.869-275.44-268.869-2.166 0-4.326 0.025-6.481 0.075l0.32-0.006z" />
<glyph unicode="&#xe94f;" glyph-name="send" d="M910.080 755.52v0c-3.464 4.143-8.389 6.964-13.973 7.669l-0.107 0.011h-3.2l-835.52-227.84c-6.911-2.342-11.803-8.755-11.84-16.316v-0.004c-0.086-0.599-0.136-1.29-0.136-1.993 0-7.614 5.781-13.878 13.193-14.642l0.063-0.005 300.16-98.24-28.16-217.92c0-8 4.16-16.96 10.56-17.28 1.488-1.716 3.649-2.814 6.069-2.88h0.011c0.469-0.051 1.013-0.080 1.564-0.080 4.111 0 7.845 1.615 10.602 4.246l-0.006-0.006 108.48 83.84 96-137.92c3.652-4.94 9.456-8.109 16-8.109s12.348 3.168 15.962 8.055l0.038 0.054 318.080 619.84v1.92c0.153 1.065 0.241 2.296 0.241 3.546 0 5.214-1.521 10.074-4.144 14.158l0.063-0.104zM848.96 693.44l-272.96-531.52-172.8 247.040zM444.16 286.080l-72.64-58.56 16.64 139.84zM128 515.52l655.68 178.24-408.32-259.84z" />
<glyph unicode="&#xe950;" glyph-name="split" d="M864 816h-704c-9.6 0-16-6.4-16-16v-288c0-9.6 6.4-16 16-16h704c9.6 0 16 6.4 16 16v288c0 9.6-6.4 16-16 16zM848 528h-672v256h672v-256zM160 80h704c9.6 0 16 6.4 16 16v288c0 9.6-6.4 16-16 16h-704c-9.6 0-16-6.4-16-16v-288c0-9.6 6.4-16 16-16zM176 368h672v-256h-672v256z" />
<glyph unicode="&#xe951;" glyph-name="deconnect" d="M719.040 786.24c-3.996 2.769-8.947 4.423-14.285 4.423-1.283 0-2.543-0.096-3.774-0.28l0.139 0.017c-0.416 0.024-0.903 0.037-1.393 0.037-9.806 0-18.355-5.378-22.859-13.346l-0.068-0.131c-3.515-4.719-5.628-10.664-5.628-17.102 0-9.885 4.98-18.607 12.569-23.794l0.099-0.064c89.115-63.291 146.56-166.118 146.56-282.362 0-190.693-154.587-345.28-345.28-345.28-190.511 0-344.985 154.292-345.28 344.734v0.028c1.409 116.985 60.247 219.935 149.58 282.128l1.14 0.752 10.24 19.52v0.96c0.063 0.873 0.099 1.891 0.099 2.918 0 6.239-1.332 12.167-3.728 17.514l0.109-0.272c-5.474 7.856-14.223 13.103-24.225 13.755l-0.095 0.005c-0.972 0.133-2.096 0.208-3.238 0.208-5.1 0-9.847-1.51-13.819-4.108l0.097 0.059c-105.006-74.081-172.751-194.889-172.751-331.52 0-223.258 180.881-404.27 404.091-404.48h0.020c0.081 0 0.176 0 0.271 0 223.388 0 404.48 181.092 404.48 404.48 0 136.631-67.745 257.44-171.479 330.668l-1.272 0.852zM484.16 586.88c0.096-0.001 0.209-0.002 0.322-0.002 15.199 0 27.52 12.321 27.52 27.52 0 0.113-0.001 0.226-0.002 0.339v-0.017 241.28c-1.566 14.209-13.504 25.162-28 25.162s-26.434-10.954-27.989-25.036l-0.011-0.127v-241.28c-0.001-0.097-0.002-0.212-0.002-0.327 0-15.199 12.321-27.52 27.52-27.52 0.226 0 0.451 0.003 0.675 0.008l-0.033-0.001z" />
<glyph unicode="&#xe952;" glyph-name="swap" d="M480 828.8h-320c-9.6 0-16-6.4-16-16v-316.8c0-9.6 6.4-16 16-16h320c9.6 0 16 6.4 16 16v313.6c0 9.6-6.4 19.2-16 19.2zM460.8 512h-281.6v281.6h281.6v-281.6zM864 92.8c9.6 0 16 6.4 16 16v316.8c0 9.6-6.4 16-16 16h-320c-9.6 0-16-6.4-16-16v-316.8c0-9.6 6.4-16 16-16h320zM563.2 409.6h281.6v-281.6h-281.6v281.6zM672 828.8h-67.2c-9.6 0-19.2-9.6-19.2-19.2s9.6-19.2 22.4-19.2h67.2c60.8 0 112-51.2 112-112v-92.8l-25.6 19.2c-3.2 3.2-9.6 6.4-12.8 6.4-6.4 0-9.6-3.2-12.8-6.4-6.4-6.4-6.4-19.2 0-25.6l57.6-57.6c6.4-6.4 19.2-6.4 25.6 0l57.6 57.6c6.4 6.4 6.4 19.2-3.2 28.8-6.4 6.4-19.2 6.4-25.6 0l-25.6-22.4v92.8c0 83.2-67.2 150.4-150.4 150.4zM345.6 92.8h67.2c9.6 0 19.2 6.4 19.2 16s-6.4 16-19.2 16h-67.2c-60.8 0-108.8 48-108.8 105.6v86.4l25.6-19.2c6.4-6.4 16-6.4 25.6 0 6.4 6.4 6.4 16 0 25.6l-54.4 51.2c-6.4 6.4-19.2 6.4-25.6 0l-60.8-54.4c-6.4-6.4-6.4-16 0-25.6 6.4-3.2 16-6.4 25.6 0l25.6 19.2v-86.4c3.2-73.6 67.2-134.4 147.2-134.4z" />
<glyph unicode="&#xe953;" glyph-name="tri" d="M380.8 380.8l131.2-144 131.2 144zM643.2 515.2l-131.2 144-131.2-144z" />
<glyph unicode="&#xe954;" glyph-name="trash" d="M521.6 128c12.8 0 22.4 9.6 22.4 22.4v448c0 12.8-9.6 22.4-22.4 22.4s-22.4-9.6-22.4-22.4v-448c0-12.8 9.6-22.4 22.4-22.4zM384 128c12.8 0 22.4 9.6 22.4 22.4v448c0 12.8-9.6 22.4-22.4 22.4s-22.4-9.6-22.4-22.4v-448c3.2-12.8 12.8-22.4 22.4-22.4zM656 128c12.8 0 22.4 9.6 22.4 22.4v448c0 12.8-9.6 22.4-22.4 22.4s-22.4-9.6-22.4-22.4v-448c0-12.8 9.6-22.4 22.4-22.4zM832 755.2h-182.4c-3.2 19.2-9.6 44.8-25.6 60.8-12.8 12.8-28.8 19.2-48 19.2h-134.4c-19.2 0-35.2-6.4-48-19.2-16-19.2-22.4-44.8-25.6-60.8h-160c-12.8 0-22.4-9.6-22.4-22.4s9.6-22.4 22.4-22.4h19.2l25.6-614.4c0-25.6 16-76.8 73.6-76.8h384c57.6 0 73.6 48 73.6 73.6l25.6 617.6h22.4c12.8 0 22.4 9.6 22.4 22.4s-9.6 22.4-22.4 22.4zM409.6 755.2c3.2 12.8 6.4 25.6 12.8 32 3.2 3.2 9.6 6.4 16 6.4h137.6c6.4 0 12.8-3.2 16-6.4 6.4-6.4 9.6-16 12.8-32h-195.2zM768 710.4l-25.6-614.4c0-6.4-3.2-32-32-32h-384c-28.8 0-32 28.8-32 32l-22.4 614.4h496z" />
<glyph unicode="&#xe955;" glyph-name="minus" d="M264 496h576v-96h-576v96z" />
<glyph unicode="&#xe956;" glyph-name="arrow" d="M744 873.28l-443.2-406.4 443.2-406.080v812.48z" />
<glyph unicode="&#xe957;" glyph-name="link" d="M537.6 486.4c-6.4-6.4-6.4-19.2 0-25.6 28.8-28.8 28.8-80 0-108.8l-160-160c-28.8-32-76.8-32-108.8 0l-22.4 22.4c-28.8 28.8-28.8 80 0 108.8l160 160c6.4 6.4 6.4 19.2 0 25.6s-19.2 6.4-25.6 0l-160-160c-22.4-22.4-35.2-51.2-35.2-80 0-32 12.8-60.8 35.2-80l22.4-22.4c22.4-22.4 51.2-32 80-32s57.6 9.6 80 32l160 160c44.8 44.8 44.8 118.4 0 163.2-6.4 3.2-19.2 3.2-25.6-3.2zM819.2 694.4l-22.4 22.4c-44.8 44.8-118.4 44.8-163.2 0l-160-160c-44.8-44.8-44.8-118.4 0-163.2 6.4-6.4 19.2-6.4 25.6 0s6.4 19.2 0 25.6c-28.8 28.8-28.8 80 0 108.8l160 160c28.8 28.8 80 28.8 108.8 0l22.4-22.4c28.8-28.8 28.8-80 0-108.8l-160-160c-6.4-6.4-6.4-19.2 0-25.6 3.2-3.2 9.6-6.4 12.8-6.4s9.6 3.2 12.8 6.4l160 160c22.4 22.4 35.2 51.2 35.2 80s-9.6 64-32 83.2z" />
<glyph unicode="&#xe958;" glyph-name="receipt" d="M857.6 464h-118.4v374.4c0 6.4-3.2 12.8-9.6 16s-12.8 0-16-3.2l-44.8-44.8-44.8 44.8c-6.4 6.4-16 6.4-22.4 0l-44.8-44.8-44.8 41.6c-6.4 6.4-16 6.4-22.4 0l-44.8-44.8-44.8 44.8c-6.4 6.4-16 6.4-22.4 0l-44.8-44.8-44.8 44.8c-6.4 6.4-16 6.4-22.4 0l-44.8-44.8-44.8 44.8c-6.4 6.4-16 6.4-22.4 0-3.2-3.2-3.2-6.4-3.2-9.6v-713.6c0-44.8 38.4-83.2 83.2-83.2h560c0 0 0 0 0 0s0 0 0 0c44.8 0 83.2 38.4 83.2 83.2v323.2c-3.2 9.6-9.6 16-19.2 16zM230.4 73.6c-28.8 0-51.2 22.4-51.2 51.2v675.2l28.8-28.8c6.4-6.4 16-6.4 22.4 0l44.8 44.8 44.8-44.8c6.4-6.4 16-6.4 22.4 0l44.8 44.8 44.8-44.8c6.4-6.4 16-6.4 22.4 0l44.8 44.8 44.8-44.8c6.4-6.4 16-6.4 22.4 0l44.8 44.8 44.8-44.8c6.4-6.4 16-6.4 22.4 0l32 28.8v-352c0 0 0 0 0 0v-323.2c0-19.2 6.4-35.2 16-51.2h-496zM841.6 124.8c0-28.8-22.4-51.2-51.2-51.2s-51.2 22.4-51.2 51.2v307.2h102.4v-307.2zM611.2 425.6h-249.6c-9.6 0-16-6.4-16-16s6.4-16 16-16h249.6c9.6 0 16 6.4 16 16s-6.4 16-16 16zM291.2 422.4c-3.2 3.2-6.4 3.2-9.6 3.2s-9.6-3.2-9.6-3.2c-3.2-3.2-3.2-6.4-3.2-9.6s3.2-9.6 3.2-9.6c3.2-3.2 6.4-3.2 9.6-3.2s9.6 3.2 9.6 3.2 3.2 6.4 3.2 9.6c0 0-3.2 6.4-3.2 9.6zM611.2 320h-249.6c-9.6 0-16-6.4-16-16s6.4-16 16-16h249.6c9.6 0 16 6.4 16 16s-6.4 16-16 16zM291.2 316.8c-3.2 3.2-9.6 3.2-12.8 3.2s-9.6-3.2-9.6-3.2c-3.2-3.2-3.2-6.4-3.2-9.6s3.2-9.6 3.2-9.6c3.2-3.2 6.4-3.2 9.6-3.2s9.6 3.2 9.6 3.2 3.2 6.4 3.2 9.6c3.2 3.2 0 6.4 0 9.6zM611.2 217.6h-249.6c-9.6 0-16-6.4-16-16s6.4-16 16-16h249.6c9.6 0 16 6.4 16 16s-6.4 16-16 16zM291.2 211.2c-3.2 3.2-6.4 3.2-9.6 3.2s-9.6-3.2-9.6-3.2c-3.2-3.2-3.2-6.4-3.2-9.6s3.2-9.6 3.2-9.6c3.2-3.2 6.4-3.2 9.6-3.2s9.6 3.2 9.6 3.2 3.2 6.4 3.2 9.6c0 3.2-3.2 6.4-3.2 9.6zM512 566.4h32c-3.2-35.2-28.8-64-73.6-64-41.6 0-67.2 22.4-76.8 60.8h-16v22.4h12.8c0 3.2 0 6.4 0 9.6s0 6.4 0 9.6h-12.8v22.4h16c9.6 38.4 35.2 60.8 76.8 60.8 44.8 0 70.4-28.8 73.6-64h-32c-3.2 22.4-16 38.4-44.8 38.4-25.6 0-41.6-12.8-48-35.2h60.8v-25.6h-60.8c0-3.2 0-6.4 0-9.6s0-6.4 0-9.6h57.6l-6.4-22.4h-48c6.4-19.2 22.4-32 44.8-32 28.8 3.2 41.6 19.2 44.8 38.4z" />
<glyph unicode="&#xe959;" glyph-name="attachment" d="M709.44 707.52c0 64-69.12 128-152.96 118.72-71.556-5.091-128.349-61.884-133.414-132.98l-0.026-0.46v-340.8c-0.102-1.639-0.16-3.555-0.16-5.485 0-51.959 42.121-94.080 94.080-94.080s94.080 42.121 94.080 94.080c0 1.929-0.058 3.845-0.173 5.746l0.013-0.262v251.84c0.038 0.496 0.059 1.075 0.059 1.659 0 12.901-10.459 23.36-23.36 23.36-0.584 0-1.163-0.021-1.736-0.063l0.077 0.005c-0.627 0.061-1.355 0.096-2.091 0.096-11.567 0-21.115-8.644-22.537-19.824l-0.012-0.113v-251.84c0.004-0.243 0.007-0.53 0.007-0.818 0-25.401-19.471-46.255-44.302-48.449l-0.185-0.013c-24.587 0.431-44.353 20.464-44.353 45.113 0 1.467 0.070 2.918 0.207 4.349l-0.014-0.182v340.8c5.126 50.431 47.366 89.453 98.72 89.453s93.594-39.022 98.685-89.033l0.035-0.42v-405.12c-3.846-81.587-70.928-146.278-153.12-146.278s-149.274 64.691-153.107 145.934l-0.013 0.344v395.2c0.024 0.394 0.037 0.854 0.037 1.317 0 12.901-10.459 23.36-23.36 23.36-0.463 0-0.924-0.013-1.38-0.040l0.063 0.003c-0.627 0.061-1.355 0.096-2.091 0.096-11.567 0-21.115-8.644-22.537-19.824l-0.012-0.113v-394.88c0-109.043 88.397-197.44 197.44-197.44s197.44 88.397 197.44 197.44v0 409.6z" />
<glyph unicode="&#xe95a;" glyph-name="pencil" d="M768 732.48c-16.622 16.631-39.59 26.919-64.96 26.919s-48.338-10.287-64.96-26.918v0l-365.44-364.16c-2.41-2.404-4.194-5.433-5.089-8.824l-0.031-0.136-48-172.8c-0.491-1.67-0.773-3.588-0.773-5.573 0-11.311 9.169-20.48 20.48-20.48 1.984 0 3.903 0.282 5.717 0.809l-0.145-0.036 172.8 48c3.527 0.926 6.556 2.71 8.96 5.12v0l364.16 364.16c16.631 16.622 26.919 39.59 26.919 64.96s-10.287 48.338-26.918 64.96v0zM317.12 355.2l298.24 297.92 96-96-297.92-298.24zM297.92 316.48l76.8-76.8-106.24-29.44zM761.92 608l-21.76-21.76-96 96 21.76 21.76c9.21 9.221 21.939 14.925 36 14.925s26.79-5.704 36-14.924v-0.001l24-24c9.221-9.21 14.925-21.939 14.925-36s-5.704-26.79-14.924-36h-0.001z" />
<glyph unicode="&#xe95b;" glyph-name="smiley" d="M481.28 239.787c-10.24 0-17.067 0-27.307 0-71.68 6.827-139.947 51.2-177.493 112.64l37.547 23.893c34.133-51.2 88.747-85.333 146.773-92.16 75.093-10.24 153.6 27.307 194.56 92.16l37.547-23.893c-51.2-71.68-129.707-112.64-211.627-112.64zM641.707 512.853c-23.893 0-44.373 20.48-44.373 44.373s20.48 44.373 44.373 44.373c23.893 0 44.373-20.48 44.373-44.373 3.413-23.893-17.067-44.373-44.373-44.373zM368.64 512.853c-23.893 0-44.373 20.48-44.373 44.373s20.48 44.373 44.373 44.373c23.893 0 44.373-20.48 44.373-44.373s-20.48-44.373-44.373-44.373zM505.173 99.84c204.8 0 368.64 163.84 368.64 368.64 0 58.027-13.653 109.227-37.547 160.427-20.48 40.96-47.787 78.507-81.92 112.64-64.853 61.44-153.6 98.987-249.173 98.987-204.8-3.413-368.64-170.667-368.64-372.053 0-61.44 13.653-119.467 40.96-170.667 17.067-34.133 40.96-64.853 68.267-92.16 64.853-64.853 157.013-105.813 259.413-105.813zM505.173 881.493c228.693 0 413.013-184.32 413.013-413.013s-184.32-413.013-413.013-413.013c-228.693 0-413.013 184.32-413.013 413.013s184.32 413.013 413.013 413.013z" />
<glyph unicode="&#xe95c;" glyph-name="filter1" d="M457.387 192c-10.24 0-20.48 3.413-27.307 10.24s-10.24 17.067-10.24 27.307v170.667c0 3.413 0 10.24-3.413 13.653l-157.013 215.040c-10.24 10.24-10.24 27.307-3.413 40.96s20.48 20.48 34.133 20.48v0h419.84c13.653 0 27.307-6.827 34.133-20.48s6.827-30.72-3.413-40.96l-153.6-215.040c-3.413-3.413-3.413-6.827-3.413-13.653v-139.947c0-17.067-10.24-30.72-27.307-37.547l-98.987-30.72zM443.733 441.173v0c10.24-10.24 13.653-23.893 13.653-37.547v-170.667l88.747 30.72v139.947c0 13.653 3.413 27.307 13.653 37.547v0l153.6 208.213h-423.253l153.6-208.213z" />
<glyph unicode="&#xe95d;" glyph-name="lock1" d="M327.68 209.067h307.2c0.032 0 0.071 0 0.109 0 17.89 0 32.566 13.764 34.016 31.28l0.008 0.123v259.413h-43.349v51.2c-1.88 75.83-63.798 136.585-139.906 136.585-1.334 0-2.665-0.019-3.99-0.056l0.195 0.004c-1.13 0.033-2.461 0.051-3.795 0.051-76.108 0-138.027-60.754-139.903-136.411l-0.003-0.174v-51.2h-44.032v-259.413c1.439-17.444 15.803-31.097 33.42-31.402h0.030zM525.312 294.741c0.081-0.659 0.127-1.422 0.127-2.196 0-5.273-2.135-10.047-5.588-13.506v0c-3.935-4.207-9.521-6.829-15.718-6.829-0.114 0-0.228 0.001-0.341 0.003h-44.015c-0.096-0.002-0.21-0.002-0.324-0.002-6.198 0-11.783 2.622-15.707 6.817l-0.011 0.012c-3.281 3.377-5.304 7.991-5.304 13.078 0 0.926 0.067 1.835 0.196 2.725l-0.012-0.101 5.12 54.272c-10.684 9.194-17.408 22.733-17.408 37.842 0 0.016 0 0.032 0 0.049v-0.002c0 30.162 24.451 54.613 54.613 54.613s54.613-24.451 54.613-54.613v0c-0.126-15.166-6.961-28.711-17.678-37.829l-0.071-0.059zM383.317 551.424c1.685 51.652 43.961 92.883 95.867 92.883 0.977 0 1.951-0.015 2.921-0.044l-0.142 0.003c0.737 0.020 1.605 0.032 2.475 0.032 51.543 0 93.59-40.656 95.822-91.649l0.007-0.201v-51.2h-196.949z" />
<glyph unicode="&#xe95e;" glyph-name="human" d="M496 732.8c60.8 0 108.8-48 108.8-108.8s-48-108.8-108.8-108.8-108.8 48-108.8 108.8v0c0 60.8 48 108.8 108.8 108.8v0zM496 758.4c-76.8 0-137.6-60.8-137.6-137.6s60.8-137.6 137.6-137.6 137.6 60.8 137.6 137.6-60.8 137.6-137.6 137.6zM732.8 230.4c-9.6 121.6-112 217.6-233.6 217.6-124.8 0-227.2-96-236.8-217.6l-6.4-54.4c0-9.6 6.4-16 16-16s16 6.4 16 16l6.4 51.2c9.6 112 108.8 195.2 224 185.6 99.2-9.6 179.2-86.4 185.6-185.6l3.2-51.2c0-9.6 6.4-16 16-16s16 6.4 16 16l-6.4 54.4z" />
<glyph unicode="&#xeadf;" glyph-name="file-pdf" d="M842.012 370.52c-13.648 13.446-43.914 20.566-89.972 21.172-31.178 0.344-68.702-2.402-108.17-7.928-17.674 10.198-35.892 21.294-50.188 34.658-38.462 35.916-70.568 85.772-90.576 140.594 1.304 5.12 2.414 9.62 3.448 14.212 0 0 21.666 123.060 15.932 164.666-0.792 5.706-1.276 7.362-2.808 11.796l-1.882 4.834c-5.894 13.592-17.448 27.994-35.564 27.208l-10.916 0.344c-20.202 0-36.664-10.332-40.986-25.774-13.138-48.434 0.418-120.892 24.98-214.738l-6.288-15.286c-17.588-42.876-39.63-86.060-59.078-124.158l-2.528-4.954c-20.46-40.040-39.026-74.028-55.856-102.822l-17.376-9.188c-1.264-0.668-31.044-16.418-38.028-20.644-59.256-35.38-98.524-75.542-105.038-107.416-2.072-10.17-0.53-23.186 10.014-29.212l16.806-8.458c7.292-3.652 14.978-5.502 22.854-5.502 42.206 0 91.202 52.572 158.698 170.366 77.93 25.37 166.652 46.458 244.412 58.090 59.258-33.368 132.142-56.544 178.142-56.544 8.168 0 15.212 0.78 20.932 2.294 8.822 2.336 16.258 7.368 20.792 14.194 8.926 13.432 10.734 31.932 8.312 50.876-0.72 5.622-5.21 12.574-10.068 17.32zM211.646 145.952c7.698 21.042 38.16 62.644 83.206 99.556 2.832 2.296 9.808 8.832 16.194 14.902-47.104-75.124-78.648-105.066-99.4-114.458zM478.434 760.314c13.566 0 21.284-34.194 21.924-66.254s-6.858-54.56-16.158-71.208c-7.702 24.648-11.426 63.5-11.426 88.904 0 0-0.566 48.558 5.66 48.558v0zM398.852 322.506c9.45 16.916 19.282 34.756 29.33 53.678 24.492 46.316 39.958 82.556 51.478 112.346 22.91-41.684 51.444-77.12 84.984-105.512 4.186-3.542 8.62-7.102 13.276-10.65-68.21-13.496-127.164-29.91-179.068-49.862v0zM828.902 326.348c-4.152-2.598-16.052-4.1-23.708-4.1-24.708 0-55.272 11.294-98.126 29.666 16.468 1.218 31.562 1.838 45.102 1.838 24.782 0 32.12 0.108 56.35-6.072 24.228-6.18 24.538-18.734 20.382-21.332v0zM917.806 730.924c-22.21 30.292-53.174 65.7-87.178 99.704s-69.412 64.964-99.704 87.178c-51.574 37.82-76.592 42.194-90.924 42.194h-496c-44.112 0-80-35.888-80-80v-864c0-44.112 35.886-80 80-80h736c44.112 0 80 35.888 80 80v624c0 14.332-4.372 39.35-42.194 90.924v0zM785.374 785.374c30.7-30.7 54.8-58.398 72.58-81.374h-153.954v153.946c22.982-17.78 50.678-41.878 81.374-72.572v0zM896 16c0-8.672-7.328-16-16-16h-736c-8.672 0-16 7.328-16 16v864c0 8.672 7.328 16 16 16 0 0 495.956 0.002 496 0v-224c0-17.672 14.324-32 32-32h224v-624z" />
<glyph unicode="&#xeae0;" glyph-name="file-openoffice" d="M690.22 488.318c-60.668 28.652-137.97 34.42-194.834-6.048 69.14 6.604 144.958-4.838 195.106-57.124 48 55.080 124.116 65.406 192.958 59.732-57.488 38.144-133.22 33.024-193.23 3.44v0zM665.646 354.25c-68.376 1.578-134.434-23.172-191.1-60.104-107.176 45.588-242.736 37.124-334.002-38.982 26.33 0.934 52.006 7.446 78.056 10.792 95.182 9.488 196.588-14.142 268.512-79.824 29.772 43.542 71.644 78.242 119.652 99.922 63.074 30.52 134.16 33.684 202.82 34.52-41.688 28.648-94.614 33.954-143.938 33.676zM917.806 730.924c-22.21 30.292-53.174 65.7-87.178 99.704s-69.412 64.964-99.704 87.178c-51.574 37.82-76.592 42.194-90.924 42.194h-496c-44.112 0-80-35.888-80-80v-864c0-44.112 35.886-80 80-80h736c44.112 0 80 35.888 80 80v624c0 14.332-4.372 39.35-42.194 90.924v0zM785.374 785.374c30.7-30.7 54.8-58.398 72.58-81.374h-153.954v153.946c22.982-17.78 50.678-41.878 81.374-72.572v0zM896 16c0-8.672-7.328-16-16-16h-736c-8.672 0-16 7.328-16 16v864c0 8.672 7.328 16 16 16 0 0 495.956 0.002 496 0v-224c0-17.672 14.324-32 32-32h224v-624z" />
<glyph unicode="&#xeae1;" glyph-name="file-word" d="M639.778 484.108h44.21l-51.012-226.178-66.324 318.010h-106.55l-77.114-318.010-57.816 318.010h-111.394l113.092-511.88h108.838l76.294 302.708 68.256-302.708h100.336l129.628 511.88h-170.446v-91.832zM917.806 730.924c-22.21 30.292-53.174 65.7-87.178 99.704s-69.412 64.964-99.704 87.178c-51.574 37.82-76.592 42.194-90.924 42.194h-496c-44.112 0-80-35.888-80-80v-864c0-44.112 35.886-80 80-80h736c44.112 0 80 35.888 80 80v624c0 14.332-4.372 39.35-42.194 90.924v0zM785.374 785.374c30.7-30.7 54.8-58.398 72.58-81.374h-153.954v153.946c22.982-17.78 50.678-41.878 81.374-72.572v0zM896 16c0-8.672-7.328-16-16-16h-736c-8.672 0-16 7.328-16 16v864c0 8.672 7.328 16 16 16 0 0 495.956 0.002 496 0v-224c0-17.672 14.324-32 32-32h224v-624z" />
<glyph unicode="&#xeae2;" glyph-name="file-excel" d="M743.028 576h-135.292l-95.732-141.032-95.742 141.032h-135.29l162.162-242.464-182.972-269.536h251.838v91.576h-50.156l50.156 74.994 111.396-166.57h140.444l-182.976 269.536 162.164 242.464zM917.806 730.924c-22.21 30.292-53.174 65.7-87.178 99.704s-69.412 64.964-99.704 87.178c-51.574 37.82-76.592 42.194-90.924 42.194h-496c-44.112 0-80-35.888-80-80v-864c0-44.112 35.886-80 80-80h736c44.112 0 80 35.888 80 80v624c0 14.332-4.372 39.35-42.194 90.924v0zM785.374 785.374c30.7-30.7 54.8-58.398 72.58-81.374h-153.954v153.946c22.982-17.78 50.678-41.878 81.374-72.572v0zM896 16c0-8.672-7.328-16-16-16h-736c-8.672 0-16 7.328-16 16v864c0 8.672 7.328 16 16 16 0 0 495.956 0.002 496 0v-224c0-17.672 14.324-32 32-32h224v-624z" />
</font>
</defs>
</svg>
